<svg xmlns="http://www.w3.org/2000/svg" width="110" height="40" viewBox="0 0 110 40" fill="none">
<path fill="#E9624E" fill-rule="evenodd" d="m15.9 20-.2-.1v-1h-.2v-.2l-.4-.1v-.2l-.1-.2V18l.1-.2v-.3h.1v-1h.1V16l-.2-.2v-.2h.1v-.8l.1-.1v-.5l-.2-.3v-1.3H15v-.5l-.2-.2s0-.2.2-.2v-.2l-.1-.3c-.2 0-.2-.2-.3-.3 0 0-.1 0 0 0h-.2v.1l-.1.1v.6l-.1.1-.1.2H14l-.1.2v.3c-.2 0 0 .2-.2.2v.7l-.2.1v.2l-.2.2-.2.3v.4l-.2.3-.1.2v.1l-.2.2v.5l-.2.1-.1.2-.1.1v.4H12v.5l-.1.2v.2h-.1v.5h-.2v.7l-.2.2v.2c-.1 0 0 .2-.2.2v.4H11v.6l.2.2h.6v-.1h1.9v-.1h.6l.1-.1h.6a21.6 21.6 0 0 1 .1 0l.5-.1h.1l.3-.2Zm11 16.8-.3.2v.1h-.2l-.1.2h-.2l-.1.1h-.2l-.3.1-.1.2v.2l.1.2-.1.1h-.3l-.3-.2h-.2s-.2 0-.2.2v.2H24s-.3 0-.3-.2v-.1l.2-.2-.2-.1h-.1l-.2.2s.2 0 .1.1c0 .1-.1 0-.2 0h-.2v.2l-.1.2-.2.1-.3-.1c-.1 0-.2 0-.2.2H22a3 3 0 0 1-.3 0h-.4a80.1 80.1 0 0 0-.3-.1h-.5v-.1h-.7v-.1H19v-.2l-.2-.1h-.2v-.2l.2-.1v-.1h-.5v-.2h.3l-.1-.2h-.2V37H18l-.1-.2h-.1l-.2-.2v-.2c.2 0 .3-.2.4-.3v-1.8l.1-.1v-.3l-.2-.2v-.4l-.2-.2v-.3h-.3l.2-.3h-.1v-.3l.1-.1v-.4l-.2-.3V31h-.1v-.7L17 30v-.3l-.2-.1.2-.5V29s.2-.1.1-.2l-.1-.2v-1.1l-.2-.2v-.8l-.1-.2V26l-.4-.3h-.2v.1h-.8l-.3.1h-1.7l-.2.1h-1.7l-.1.1H9.8l-.2.2v.3l-.1.2v.1c-.1 0 0 .2-.2.2v.7L9 28l-.2.3v.6h-.2v1l-.2.2v1.2l-.2.1v1.1l-.3.2v.2h-.1v.4l.1.1v.5h-.2v.6c-.2.1-.2.2-.2.3-.2 0-.1.2-.2.2v.4l-.1.1-.1.2v.5l-.1.3v.4h-.7l-.2-.2h-.3l-.2.2v.3l-.2.2h-1l-.1.2H4l-.1-.1h-.4c-.2 0-.3-.1-.4 0a1 1 0 0 1-.4 0h-.9l-.1-.3h-1a393 393 0 0 1-.6-.4v-.3h.1v-.2H0v-.4l.2-.3v-.1l-.1-.1V35l.3-.3V34h.1l.2-.4h.1v-1.7c.1 0 0-.2.2-.2v-.2l.2-.2v-.5h.1v-.5l.2-.3v-.7l.2-.4v-.8l.4-.4v-.5l.2-.2v-.1l-.1-.2.2-.2v-.9l.2-.2.1-1V24H3v-.3l.1-.2v-.3s0-.2.2-.2v-.5l.1-.2v-.7c.1 0 .3 0 .4-.2v-.3l-.1-.3c.1 0 0-.1 0-.2l.1-.1v-.2h.1v-.7H4V19c0-.3.2-.4.3-.6l.1-.2v-1.1l.2-.3.1-.2V16l.3-.3V15c.2 0 .1-.2.2-.2l.2-.2v-.8l.3-.3v-.7c.1-.2 0-.3.2-.3v-.3c0-.2.2-.2.1-.3l.2-.2.1-.2v-.2l.1-.3.2-.1v-.3l.2-.2V10c0-.1 0-.3.3-.4v-.5s0-.2.2-.2v-.2l.1-.2v-.4c.3 0 .4-.2.4-.4l.1-.2.1-.1c0-.2.1-.2.2-.3v-.3l.1-.1h.1c0-.2.1-.3.2-.3v-.2l.2-.2v-.3h.4v-.3L9 5.3h1.2l.3.1.2.1h.7v-.2l.2-.2v-.2h.2l.1-.3.3-.6.2-.2.2-.2.3-.5.1-.2-.1-.2v-.1l.1.1.3-.2.1-.2c0-.1 0-.2-.2-.3v-.1a570.4 570.4 0 0 1 .7-.2l.3-.2.4-.1.2-.2h.3l.3.2h.4l.2.1.1.1h.2v-.1l.3.1H18l.2.2.2.1h.6l.2.2.2.1.3.1h.2l.2.2.2.2v.1l.2.2v.1l.2.2v.5l-.1.1s.1.1 0 .2l.3.2s0 .2.2.2l.1.2.1.2v.6l.1.2v.1l.2.1v.9h.2V9l.2.2v.8l.2.2V12c.2.2.1.2.1.3v.9l.1 1 .2.2v.8l.1.2v.9l-.1.4v.5h.1v1.9c.1 0 .2 0 .2.2v.2h.1v1h.2v.8l.1.4v.5h.2v.5c.1 0 .2 0 .2.2l-.3.1.2.1v.5l.1.3h.1v1.3l.2.1v.7l-.1.1v.3l.2.2v.3l.2.2v.1h.1v.6l.2.3v.2l-.1.2.1.4v.2c.2 0 .2.2.3.4v.3l-.1.3v.1l.2.2v1s.2 0 .1.1l.1.1h.2c.1 0 0 .2.2.2v.7l.2.1v1.1l-.2.3.3.3v.2h.2v.8l.2-.1.2-.2a59.4 59.4 0 0 1 0-.2h.2v.9h-.2v.2l.1.3.2.2v.5Zm72-15.4v-.6l-.3-.4v-.2l-.1-.2-.1-.3V19l-.2-.1v-.4H98v-.2l-.3-.4v-.3l-.3-.5v-.8l-.1-.1c0-.2-.1-.2 0-.4-.2 0-.2-.2-.3-.3V15a.6.6 0 0 1-.3-.5h-.1l-.1.1v.2l-.1.1v.5c-.2.1-.2.3-.3.4v.3H96v1.2c-.2.1-.2.2-.3.4v.8h-.2v.5l-.1.1v1.5c-.1 0-.2 0-.2.2h.1v.7l.2.2.2-.1H99v-.3ZM110 33.6v.3h-.3v.1l-.5.5-.5.3h-.2l-.1.1-.4-.2-.2.3h-.1v.4l-.2.1-.3.1h-.6v-.2h-.2c-.2-.1-.3 0-.4 0l-.2.3h-.5l-.1-.1h-.9l-.2-.2-.4-.2-.3-.2-.3-.2-.3-.3v-.1l-.4-.3-.3-.3v-.3s-.2-.1-.1-.2l-.3-.4v-.6l-.1-.2-.1-.1v-.3l-.4-.4V30l-.4-.3v-.2c0-.1 0-.3-.2-.3v-.7l-.2-.3v-.7h-.2V27l-.3-.3h-1.1l-.1.2h-.9v-.1h-3v-.2h-.4v.2c-.2 0-.2.1-.2.2v.2l-.2.1v.4l-.1.1v.6l-.1.1v.2l-.1.1v.5l-.2.1v.7h-.1v.2H93v1l-.2.1v.2l-.2.2v.8l-.4.4v.9c-.2 0-.2.3-.3.4 0 .1-.2.2-.1.3l-.2.1v.1l-.2.3-.2.2h-.1s-.1.2-.2.1l-.2.2v.5h-.2l-.4-.5h-.3l-.2.1-.1.3h-.2l-.2-.1v-.1h-.2l-.2.1v.4H87V36h-2l-.5-.7-.1-.2-.1-.1v-2.6l.2-.2v-.4h.1v-.4l.2-.3.2-.3v-.2l.1-.2v-.2h.1v-.3c.1 0 0-.2.2-.2v-1l.3-.7v-.5l.2-.1v-.7s0-.2.2-.3l.2-.3v-.6c.2 0 .1-.2.2-.2V25l.2-.2v-.5l.3-.2v-1l.2-.3v-.6l.2-.1v-.8l.2-.2v-.7h.1v-.2l.2-.2v-.5l.2-.2v-.7c.1 0 0-.2 0-.2l.2-.1v-.4l.1-.3h.2l.1-.1v-.3l-.1-.1v-.6l.2-.3V15l.2-.2v-.2h.1v-.7l.1-.3.1-.4V13h.1v-.4l.2-.3.1-.2v-.5l.1-.3V11c.2 0 .3-.2.3-.2v-.5c0-.1 0-.3.2-.3v-.5h.2v-1l.2-.2.1-.1V8l.2-.1v-.3l.2-.3V7c.2-.1.2-.4.3-.5l.2-.2V6l.2-.1v-.6l.2-.1V5h.2v-.6h.3s.2 0 .2-.2l.1.1h.2v-.2h.1l.2-.1v-.4h-.1v-.2h.1c.1 0 .2-.2.4-.1v-.2l-.1-.3v-.2l.2.1h.2c.1 0 .3 0 .3-.2h.3l.2.2H96v-.1l.3-.3h.2l.1.1.2.2h1l.2-.1s0 .2.2.1v.1c.1.1.1.3.3.3l.1.2c0 .1 0 .2.2.2l.2.1.1.1.2.1.2.2v.2h.2l.1.3.2.1s.1.2.3.1l.2.3.1.2v.1l.1.1.1.2v.3c.2 0 .3.2.3.2v.2h.1v.2l.3.2.2.1V7l.2.2v.2l.3.2.1.2.2.3v.2c.2 0 .2.1.2.2l.3.4v.3l.1.2.1.2s.1.2.3.2v.2h.2v.5l.2.4v.6h.2v.2l.2.4v.2l.1.1v.3l.2.4v.3l.3.3v.2h.1v.6l-.1.3.2.2.1.3v.6c.1 0 0 .2.2.2v.5l.1.2v.6l.1.2v.4l.2.2.1.2v.3h.1v1l.2.2-.1.1.1.3v.2l.2.3v.7l.1.1v.2l.3.3v.4l-.1.1v.2h.2v.3l.2.2v.4h.1v.4h.1v.8l.1.1c0 .1.2.2.1.4l.2.1v.6h.1v.7l.3.5v.2h.1v.5c.2 0 .1.1.2.2l.1.2v.5l.2.1v.6l.1.1v.5l.2.1.1.2v.5l.2.2v.4l.2.3.2.3.1.3.2.3v.6l.1.3ZM84 3.8v-.1l.2-.2v-.3s-.1 0 0-.1v-1h.1v-.3h-.1v-.5l-.2-.1a.4.4 0 0 1-.3-.3l-.1-.1-.5-.3h-.2l-.3-.1-.2-.2-.3-.1L82 0h-1.6a319.6 319.6 0 0 1-.4.4c0 .2-.1.4-.3.5h-.3v.4H79v.5c0 .2-.2.3-.3.4v.3l-.2.2-.3.2.2.2v.3l-.1.2H78v.2l-.2.4v.2l-.1.2-.1.1v.4l-.4.4v.4l-.3.5v.2l-.2.2V7s0 .2-.2.3V8h-.1v.4h-.1v.2h-.2v.5l-.3.5v.1h.1l-.3.7v.5l-.2.1v1.3c-.2.1-.2.3-.3.5v.3H75v.9h-.2v.5l-.1.2v.2l-.1.2-.1.2v.4l-.2.2v.2c0 .1.1.2 0 .2v1l-.2.2-.2.2v.5l-.1.2v.3h-.1v.7l-.2.1v.5l-.1.1v.5h-.1s-.1.1-.1 0v-.1h-.1V20c-.1 0 0-.2-.2-.2v-.2l-.1-.3v-.2l-.2-.1v-.4a181.6 181.6 0 0 0-.4-.5v-.4l-.1-.1-.2-.2v-.2l-.1-.2-.1-.2-.2-.3v-.3l-.1-.2v-.3c-.2-.1-.2-.3-.3-.5V15c-.1 0 0-.2 0-.2l-.1-.1-.2-.2v-.1l-.3-.3V14s-.1-.1 0-.2c-.1-.1 0-.2-.2-.3v-.2l-.1-.2c0-.2-.1-.2-.2-.3v-.2l-.4-.5v-.2h-.2v-.3l-.2-.2-.2-.4-.2-.3-.2-.3-.3-.4v-.4l-.2-.4-1-1h-.4l-.3-.2H66l-.4-.2-.3-.2-.4-.2-.4-.2h-.8V7h-3.1l-.1.2v.2h-.2l-.2.2-.3.2v.8h-.2v.1h-.3l-.1.1v.8l-.4.6v.7l-.1.1v.2l-.1.1v.4h-.2v.7l-.1.1v1.2l-.2.4v.6H58v.7l.1.2v.7l-.1.1v.6h-.1v1.3l-.2.1v.4l.1.1V20c-.2 0-.1.2-.1.3l.1.1.1.1c0 .1 0 .2-.2.3v.7c-.1 0 0 .2-.2.2v.3l.2.2-.2.3v.6l.2.3v.1l-.1.1v.7l.1.2v2.6h-.1v2.6l-.1.4v.5l.3.3v.2l-.1.1-.1.2v.2h.2v.7s0 .1 0 0l.1.3v.2l-.2.1v1.3s0 .2.2.3v2.4l.2.1v.2l.2.2.1.2.2.2c0 .2.2.3.4.4l.3.2h.3l.3.2H61v.1h.2v.1h1.1v-.1h.8v.1h.3l.2-.2v-.1l.2-.2h.3V38h.3s0-.2.2-.2h.3v-.2l-.1-.1v-.3l.3-.3.2-.2.5-.4v-1.2h.1v-.3l.1-.1v-.2c0-.1.1-.1 0-.2v-2.9s.1-.1 0-.1v-1.1l-.1-.1V30l-.1-.1-.1-.1v-1.5l-.1-.2v-.6l.1-.1v-1.1h-.2v-.4l.2-.3v-1.8l-.2-.1v-.3h.1V23h-.1v-.6l.1-.1v-.7h.1l.2.1v.1l.3.3.1.2v.3l.1.2v.1l.3.3v.2l.3.3s.2 0 .2.2v.2l.3.4v.2s0 .2.2.3l.2.3v.3c.2 0 .1.2.2.2v.2l.3.3.5.7.1.2.1.2.2.3v.3s0 .2.2.3h.1l.1.1v.1l.2.3.1.3.2.3.1.1v.2h.1v.6l.3.3v.2l.2.3h.3v.3l.2.2v.4l.1.1.2.3v.8l.3.3v.3c0 .1 0 .3.2.3 0 .1 0 .3.2.4v.2l.4.5.3.3.4.3.6.5h.7l.3.2h1.6c.3-.1.3-.1.3-.3h.3l.3-.4.3-.1.3-.3v-.3h.2v-.5c-.2-.2 0-.3 0-.5l.3-.2V33l.1-.2v-.7l.1-.2v-.6l.1-.3v-.4h.1v-.2h.2v-1c.1 0 .2 0 .1-.1l.2-.2V29c.2 0 0-.2.1-.3v-.2l.1-.1V28l.3-.1v-.7c.2-.1 0-.3.1-.5v-.5h.2v-1l.1-.3V24h.2l.1-.6V23h.1v-1.4h.1v-.4l.1-.1v-.8h.1v-.5c.1-.1 0-.3 0-.4h.2V18l.3-.3v-.4l.1-.3v-.4s.1 0 0-.2V15h.2v-.8l.1-.1v-.5c.2-.1.2-.3.3-.5v-.9h.1v-.5l.2-.3V11h.1v-.8c.2 0 .1-.1.2-.2v-.5c.1 0 0-.2.2-.2v-1h.1v-.7l.1-.3v-.5l.2-.1v-.5l.2-.3V4.3l.2-.5ZM54.8 6l.2.2V7l-.4.3v.3h-.1v.6l-.1.1-.1.2v.8H54v.7a39.4 39.4 0 0 1 0 .3V12l-.1.2v3l-.2.1v.5h-.1v.4l.1.3v.8l-.1.1v5.3l-.2.1v.3h.1v1.3l-.2.1v3.1l-.2.3v2.4l-.2.1v.2c-.1 0 0 .2-.2.2v.7h.1v1.8l-.1.4h-.1l-.5.4-.2.2v.5l-.3.3h-.2l-.3.2-.2.1c-.1 0-.2.2-.3.1l-.1.1-.3.3H50l-.1.1-.3.1h-1l-.3.1h-.8l-.1-.2h-.6c0-.2-.2-.1-.2-.2h-.2l-.2-.1-.3-.1c0-.2-.3-.2-.4-.3-.1 0-.2 0-.3-.2l-.3-.4v-.1l-.1-.2-.1-.1-.1-.1c-.2 0-.3-.2-.3-.4v-.3l-.2-.1v-.3l-.2-.1v-.4l-.2-.3v-.1c0-.1 0-.2-.2-.3v-.5l-.3-.2v-.7l-.2-.2-.2-.2v-.3l-.2-.2v-.2c-.2 0-.1-.2-.2-.3l-.1-.2-.2-.4a.6.6 0 0 1-.2-.4s-.1 0 0-.2l-.1-.1-.1-.2-.2-.2-.2-.1v-.4l-.2-.2-.1-.2v-.1a.9.9 0 0 1-.3-.4l-.2-.3h-.1l-.2-.3v-.2L40 25l-.2-.2-.3-.4v-.1l-.1-.2-.6-.5v-.3l-.2-.3-.2-.2h-.1v.7l.1.3v1h-.1v3.4h.1v.5l-.1.2V30h.1v.4l-.1.5v2.6l.1.3v.2h.1v.3l.1.1v.6h.1v2.4l-.3.4v.2c0 .2-.2.3-.3.4v.1H38v.5c-.2 0-.3 0-.4.2l-.3.3c-.1 0-.2 0-.3.2l-.2.1h-.4v.1h-.2v.1h-2.4l-.1-.2h-.5v-.1h-.4l-.2-.1h-.2l-.4-.4-.2-.2-.4-.4v-.3l-.2-.1V38c-.1 0 0-.2-.2-.2v-1.2l-.2-.2v-1.1h-.1v-1h-.1v-.8l-.1-.2v-2.1l.1-.2v-1.7h.1v-1.5l-.2-.2v-1.5l.1-.3-.1-.2v-.2l.1-.2c-.1 0 0-.2-.2-.3v-1.7l-.2-.1-.1-.3v-1.3H30v-.3h.1V21l-.1-.4V20l-.2-.3v-1l-.1-.1V18l-.1-.1v-.5h-.1v-.6l-.2-.5v-.5h.1V15c.1 0 0-.2.2-.2v-.4l-.2-.3.1-.1v-.3h-.2v-.3l.2-.2v-.5l.2-.2v-1.7l-.1-.2v-.2l.1-.2V10l.2-.2v-.3l.2-.3V9l.1-.2.2-.2c0-.2 0-.3.2-.4V8c0-.1 0-.2.2-.3v-.4h.1v-.4l.2-.3c0-.2.2-.3.3-.4h.1l.5-.5c.2 0 .3 0 .4-.2l.4-.1h.3v-.1h.2l.4-.1.1.1h.6c0-.1.2 0 .2-.2h1.5l.4.2.3.2h.3l.2.2.1.2h.1c.3.2.3.3.5.6v.2c.2 0 .2.2.3.3v.9l.3.3v.1l.2.4V9l.1.1v.2l.1.2.3.3.3.3.1.3.2.2c.1.1.1.3.3.3v.3l.2.4v.2l.2.2c0 .2.2.2.2.3v.1l.2.2.1.2.2.2v.5l.2.2.2.2.1.2.1.2.2.2v.2l.2.2.1.2v.1l.5.5v.2l.3.2v.2l.2.2.1.2v.3h.2l.2.4.1.2.2.3.4.4c0 .2.2.2.2.3l.2.2a497 497 0 0 0 .6.8l.3.4.3.4.2-.1v-1.5h.1v-2h.1v-2h.2v-1.6l.1-.1v-.9l.1-.4v-1.2c0-.2 0-.3.2-.4V9l.1-.3v-.8h.2v-.5h.1l.1-.3v-.6h.2V6h.1v-.2s.1 0 0 0l.2-.4.2-.1v-.5h.2l.2-.2-.2-.1v-.3l.2-.1h.1s0 .1.2 0v-.2l.2-.1.3.1h.7l.1-.1.2-.2h.8l.1.1h.8V4h.7l.3.2h.2l.2.3h.1l.2.2.1.2h.1l.3.2v.1l.1.1.1.1.1.4V6Z" clip-rule="evenodd"/>
</svg>