<svg width="180" height="42" viewBox="0 0 180 42" fill="none" xmlns="http://www.w3.org/2000/svg">
<g clip-path="url(#clip0_435_431)">
<path d="M0 15.7637H8.117V16.8406H1.436V20.1847H6.927V21.2307H1.436V25.1707H8.671V26.2537H0V15.7637Z" fill="white"/>
<path d="M26.1372 20.9427L21.0372 15.7637H22.6872C22.6872 15.7637 26.2822 19.4246 27.0722 20.1636C27.8722 19.4206 31.4462 15.7637 31.4462 15.7637H33.1082L27.9772 20.9427L33.2772 26.2487H31.5632L27.0682 21.7487L22.5752 26.2487H20.8672L26.1372 20.9427Z" fill="white"/>
<path d="M50.6213 15.7637L50.6304 15.7977L50.6444 15.7637H52.3584L57.5734 26.2537H56.1034L54.7444 23.5256H48.1234L46.8114 26.2537H45.3613L50.6213 15.7637ZM54.2883 22.5856L51.4393 16.8127L48.5994 22.5856H54.2883Z" fill="white"/>
<path d="M70.5205 15.764L71.6816 15.75L80.1516 24.525C80.1439 24.4489 80.1439 24.3722 80.1516 24.296V15.764H81.4094V26.25H80.1816L71.7576 17.605C71.7576 17.636 71.7734 17.732 71.7734 17.913V26.25H70.5195L70.5205 15.764Z" fill="white"/>
<path d="M94.1934 15.7637H104.568V16.8297H100.092V26.2537H98.6582V16.8337H94.1934V15.7637Z" fill="white"/>
<path d="M117.33 15.7637H125.453V16.8406H118.768V20.1847H124.256V21.2307H118.768V25.1707H125.997V26.2537H117.33V15.7637Z" fill="white"/>
<path d="M161.998 21V0L152.998 15.75L161.998 21Z" fill="#70C395"/>
<path d="M161.998 34.125V40.689L146.998 31.937L161.998 34.125V21L143.998 31.5L152.998 15.75L148.498 13.125L145.123 26.906V11.156L148.498 13.125L161.998 0L143.998 10.5V31.5L161.998 42L179.998 31.5L161.998 34.125Z" fill="#70C395"/>
<path d="M178.873 11.156V29.531L170.998 15.751L161.998 21L179.998 31.5V10.5L161.998 0L170.998 15.751L178.873 11.156Z" fill="#70C395"/>
</g>
<defs>
<clipPath id="clip0_435_431">
<rect width="180" height="42" fill="white"/>
</clipPath>
</defs>
</svg>
