<svg xmlns="http://www.w3.org/2000/svg" width="147" height="41" viewBox="0 0 147 41" fill="none">
<path fill-rule="evenodd" clip-rule="evenodd" d="M90.5039 16.0963C90.5039 8.89867 96.4038 3.03704 103.715 3.03704C111.017 3.03704 116.912 8.88444 116.926 16.0701C116.926 16.0788 116.926 16.0875 116.926 16.0963L116.926 16.0963H119.963C119.963 16.0893 119.963 16.0823 119.963 16.0753C119.974 14.0722 121.602 12.4518 123.608 12.4518C125.62 12.4518 127.252 14.0835 127.252 16.0963L127.252 16.0963H130.289C130.289 12.4062 133.281 9.41482 136.971 9.41482C140.661 9.41482 143.652 12.4062 143.652 16.0963H146.689C146.689 10.7289 142.338 6.37778 136.971 6.37778C133.28 6.37778 130.07 8.43517 128.424 11.4657C127.208 10.2015 125.5 9.4148 123.608 9.4148C121.903 9.4148 120.347 10.0531 119.167 11.1038C117.045 4.65116 110.92 0 103.715 0C96.8972 0 91.0461 4.16519 88.639 10.0807C86.7227 7.29392 83.5118 5.46664 79.8741 5.46664C74.0036 5.46664 69.2445 10.2257 69.2445 16.0963H72.2815C72.2815 11.903 75.6809 8.50368 79.8741 8.50368C84.0674 8.50368 87.4667 11.903 87.4667 16.0963H87.4668C87.4668 16.0963 87.4668 16.0963 87.4668 16.0963H90.5039Z" fill="#00B4ED"/>
<path fill-rule="evenodd" clip-rule="evenodd" d="M72.2817 27.0296C72.2817 24.1782 74.5932 21.8667 77.4446 21.8667C79.5382 21.8667 81.3407 23.1127 82.151 24.9037H85.3663C84.4299 21.4056 81.2381 18.8296 77.4446 18.8296C72.9159 18.8296 69.2446 22.5009 69.2446 27.0296C69.2446 31.5584 72.9159 35.2296 77.4446 35.2296C81.2381 35.2296 84.43 32.6537 85.3664 29.1555H82.151C81.3407 30.9465 79.5382 32.1926 77.4446 32.1926C74.5932 32.1926 72.2817 29.881 72.2817 27.0296ZM116.926 19.1333V28.5481H119.963V19.1333L116.926 19.1333ZM127.252 28.5481V19.1333L130.289 19.1333L130.289 28.5481H127.252ZM127.252 28.5482C127.252 30.5609 125.621 32.1926 123.608 32.1926C121.595 32.1926 119.963 30.5609 119.963 28.5482H116.926C116.926 32.2382 119.918 35.2296 123.608 35.2296C127.298 35.2296 130.289 32.2382 130.289 28.5482H127.252ZM101.741 27.0296C101.741 24.1782 104.053 21.8667 106.904 21.8667C109.755 21.8667 112.067 24.1782 112.067 27.0296C112.067 29.8811 109.755 32.1926 106.904 32.1926C104.053 32.1926 101.741 29.8811 101.741 27.0296ZM106.904 18.8296C102.375 18.8296 98.7039 22.5009 98.7039 27.0296C98.7039 31.5584 102.375 35.2296 106.904 35.2296C111.433 35.2296 115.104 31.5584 115.104 27.0296C115.104 22.5009 111.433 18.8296 106.904 18.8296ZM87.467 33.4074V19.1333H90.504V31.8889H98.0966V34.9259H88.9855H87.467V33.4074ZM135.756 22.1704H138.793C141.476 22.1704 143.652 24.3459 143.652 27.0296C143.652 29.7133 141.476 31.8889 138.793 31.8889H135.756V22.1704ZM132.719 19.1333H135.756H138.793C143.154 19.1333 146.689 22.6686 146.689 27.0296C146.689 31.3906 143.154 34.9259 138.793 34.9259H135.756H132.719V31.8889V22.1704V19.1333ZM41.3039 30.0667L41.3039 19.1333L44.3409 19.1333V23.0815L50.7186 23.0815V26.1185L44.3409 26.1185V30.0667H41.3039ZM56.4891 29.763C56.4891 31.1048 57.5769 32.1926 58.9187 32.1926C60.2485 32.1926 61.3288 31.1243 61.3481 29.7991V23.0815H64.3851V29.763H64.3854L64.3851 29.8176V35.5333L64.3854 35.5333C64.3854 38.5525 61.9379 41 58.9187 41C56.21 41 53.9614 39.0299 53.5276 36.4444H56.6657C57.0261 37.3348 57.8991 37.9629 58.9187 37.9629C60.2606 37.9629 61.3483 36.8752 61.3483 35.5333L61.3481 35.5333V34.6615C60.6163 35.0252 59.7914 35.2296 58.9187 35.2296C55.8996 35.2296 53.4521 32.7821 53.4521 29.763H56.4891ZM44.3409 30.0667C44.3409 31.2408 45.2927 32.1926 46.4669 32.1926C47.641 32.1926 48.5928 31.2408 48.5928 30.0667H51.6298C51.6298 32.9181 49.3183 35.2297 46.4669 35.2297C43.6154 35.2297 41.3039 32.9181 41.3039 30.0667H44.3409ZM34.3187 32.1926C33.1446 32.1926 32.1927 31.2408 32.1927 30.0667H29.1557C29.1557 32.9181 31.4672 35.2297 34.3187 35.2297C37.1701 35.2297 39.4816 32.9181 39.4816 30.0667H36.4446C36.4446 31.2408 35.4928 32.1926 34.3187 32.1926ZM32.1927 26.1185L38.5703 26.1185V23.0815L32.1927 23.0815V19.1333L29.1557 19.1333V30.0667H32.1927V26.1185ZM53.4521 29.7629V23.0815H56.4891V29.7629H53.4521ZM6.37778 32.1926C8.22281 32.1926 9.7185 30.6969 9.71852 28.8519V28.8518V19.1333L12.7556 19.1333V28.8518L12.7556 28.8519C12.7555 32.3742 9.90011 35.2296 6.37778 35.2296C2.85543 35.2296 0 32.3742 0 28.8518H3.03704C3.03704 30.6969 4.53274 32.1926 6.37778 32.1926ZM18.0999 27.9407C18.5377 26.7022 19.7188 25.8148 21.1073 25.8148C22.4957 25.8148 23.6769 26.7022 24.1147 27.9407H18.0999ZM18.0998 30.0666C18.5376 31.3052 19.7188 32.1926 21.1073 32.1926C21.9762 32.1926 22.7624 31.8468 23.339 31.2815H26.9029C26.6186 32.0042 26.2033 32.661 25.6868 33.2215C24.5512 34.4541 22.9187 35.2296 21.1073 35.2296C17.6688 35.2296 14.8814 32.4422 14.8814 29.0037C14.8814 25.5652 17.6688 22.7778 21.1073 22.7778C24.5458 22.7778 27.3332 25.5652 27.3332 29.0037C27.3332 29.366 27.3022 29.7212 27.2426 30.0667H24.1151L24.1152 30.0666H18.0998Z" fill="#fff"/>
</svg>