<svg xmlns="http://www.w3.org/2000/svg" width="130" height="30" viewBox="0 0 130 31" fill="#fff">
<path d="M9.85 0L11.25 2.39932C11.55 2.89918 11.55 3.49901 11.25 3.99887L3.05 18.1949L6.85 24.893C7.45 25.9927 8.55 26.5925 9.75 26.5925C10.95 26.5925 12.05 25.8927 12.75 24.893L16.65 18.1949L15.65 16.3954L11.25 23.9932C10.95 24.4931 10.45 24.793 9.85 24.793C9.25 24.793 8.75 24.4931 8.45 23.9932L5.15 18.1949L12.75 4.99859L14.15 7.39792C14.45 7.89778 14.45 8.49761 14.15 8.99747L8.85 18.1949L9.85 19.9944L15.65 9.99718L19.45 16.5953C20.05 17.595 20.05 18.8947 19.45 19.8944L15.65 26.5925C15.05 27.5922 13.25 29.8916 9.95 29.8916C6.65 29.8916 4.85 27.5922 4.25 26.5925L0.45 19.8944C-0.15 18.8947 -0.15 17.595 0.45 16.5953L9.85 0Z"></path>
<path d="M42.5 11.5967C39.5 11.5967 37 13.6961 37 17.0951C37 20.4942 39.1 22.5936 42.5 22.5936C43.9 22.5936 45.3 23.2934 45.3 24.793C45.3 26.2925 44.1 27.1923 42.5 27.1923C40.9 27.1923 39.6 26.2925 39.6 24.793H37C37 27.6921 39.4 29.6916 42.5 29.6916C45.7 29.6916 48 27.7921 48 24.793C48 23.3934 47.6 22.0937 45.7 21.194C47.5 20.3942 48 18.4947 48 17.0951C48 13.7961 45.5 11.5967 42.5 11.5967ZM42.5 20.3942C40.9 20.3942 39.6 18.9946 39.6 17.0951C39.6 15.1957 40.9 13.7961 42.5 13.7961C44.1 13.7961 45.3 15.1957 45.3 17.0951C45.3 19.0946 44.1 20.3942 42.5 20.3942Z"></path>
<path d="M34.1 9.99695C34.9837 9.99695 35.7 9.28081 35.7 8.3974C35.7 7.51399 34.9837 6.79785 34.1 6.79785C33.2163 6.79785 32.5 7.51399 32.5 8.3974C32.5 9.28081 33.2163 9.99695 34.1 9.99695Z"></path>
<path d="M108.3 18.2944C108.6 19.5941 109.8 20.6938 111.7 20.6938C112.7 20.6938 114 20.1939 114.6 19.5941L116.3 21.2936C115.1 22.4932 113.3 23.0931 111.6 23.0931C108.2 23.0931 105.7 20.7937 105.7 17.3947C105.7 14.0956 108.3 11.6963 111.4 11.6963C114.7 11.6963 117.5 13.9956 117.2 18.3944H108.3V18.2944ZM114.7 16.295C114.4 14.9954 113.1 13.8957 111.5 13.8957C110 13.8957 108.7 14.8954 108.3 16.295H114.7Z"></path>
<path d="M95.8998 18.2944C96.1998 19.5941 97.3998 20.6938 99.2998 20.6938C100.3 20.6938 101.6 20.1939 102.2 19.5941L103.9 21.2936C102.7 22.4932 100.9 23.0931 99.1998 23.0931C95.7998 23.0931 93.2998 20.7937 93.2998 17.3947C93.2998 14.0956 95.8998 11.6963 98.9998 11.6963C102.3 11.6963 105.1 13.9956 104.8 18.3944H95.8998V18.2944ZM102.2 16.295C101.9 14.9954 100.6 13.8957 98.9998 13.8957C97.4998 13.8957 96.1998 14.8954 95.7998 16.295H102.2Z"></path>
<path d="M55.7997 11.5964C54.5997 11.5964 53.3997 11.9963 52.3997 13.1959V7.09766H49.6997V22.7932H52.3997V17.1948C52.3997 15.5953 53.4997 14.1957 55.0997 14.1957C56.4997 14.1957 57.5997 14.9954 57.5997 16.9949V22.6933H60.2997V16.7949C60.2997 13.6958 58.8997 11.5964 55.7997 11.5964Z"></path>
<path d="M86.8001 11.5967C85.6001 11.5967 84.1001 12.0965 83.3001 13.2962L83.2001 11.7966H80.6001V27.4922L83.3001 27.1923V21.3939C84.1001 22.5936 85.7001 22.9935 86.9001 22.9935C90.4001 22.9935 92.4001 20.3942 92.4001 17.1951C92.3001 14.096 90.1001 11.5967 86.8001 11.5967ZM86.6001 20.7941C84.8001 20.7941 83.5001 19.0946 83.5001 17.395C83.5001 15.6955 84.6001 13.896 86.6001 13.896C88.5001 13.896 89.7001 15.6955 89.7001 17.395C89.7001 19.0946 88.4001 20.7941 86.6001 20.7941Z"></path>
<path d="M123.8 23.0932C125 23.0932 126.5 22.5933 127.3 21.3936L127.4 22.8932H130V7.09766H127.3V13.1959C126.5 11.9963 124.8 11.6964 123.7 11.6964C120.2 11.6964 118.2 14.2956 118.2 17.4947C118.2 20.5939 120.4 23.0932 123.8 23.0932ZM124 13.9957C125.8 13.9957 127.1 15.6952 127.1 17.3948C127.1 19.0943 126 20.8938 124 20.8938C122.1 20.8938 120.9 19.0943 120.9 17.3948C120.9 15.6952 122.1 13.9957 124 13.9957Z"></path>
<path d="M66.8001 20.9937C66.5001 20.9937 66.2001 20.8937 66.0001 20.6938C65.8001 20.4938 65.8001 20.0939 65.8001 19.6941V14.2956H68.0001L68.2001 11.9962H65.8001V8.99707L63.1001 9.29699V11.9962H61.1001V14.2956H63.1001V19.6941C63.1001 20.7938 63.4001 21.6935 63.9001 22.2933C64.4001 22.8932 65.2001 23.1931 66.2001 23.1931C66.7001 23.1931 67.1001 23.0931 67.6001 22.9931C68.1001 22.8932 68.5001 22.6932 68.8001 22.3933L68.0001 20.5938C67.6001 20.8937 67.2001 20.9937 66.8001 20.9937Z"></path>
<path d="M77.8998 16.9948C76.7998 16.295 75.4998 16.195 74.2998 16.195C73.5998 16.195 72.3998 15.9951 72.3998 14.9954C72.3998 14.2956 73.0998 13.8957 74.3998 13.8957C75.3998 13.8957 76.2998 14.0956 77.0998 14.8954L78.5998 13.0959C77.2998 11.9962 75.9998 11.6963 74.2998 11.6963C72.2998 11.6963 69.6998 12.596 69.6998 15.0953C69.6998 16.095 70.2998 17.0948 71.0998 17.6946C72.0998 18.2944 73.3998 18.3944 74.5998 18.4944C75.3998 18.5943 76.5998 18.7943 76.3998 19.794C76.2998 20.4938 75.3998 20.7937 74.6998 20.7937C73.9998 20.7937 73.2998 20.7937 72.5998 20.5938C71.8998 20.3938 71.2998 20.0939 70.6998 19.694L69.2998 21.3936C69.3998 21.4935 69.4998 21.4935 69.4998 21.4935C71.2998 22.8931 73.6998 23.393 75.8998 22.8931C77.5998 22.4932 78.9998 21.2936 78.9998 19.4941C79.1998 18.4944 78.7998 17.4947 77.8998 16.9948Z"></path>
<path d="M30.5999 7.09766H27.8999V22.7932H30.5999V7.09766Z"></path>
<path d="M35.3997 11.8965H32.6997V22.7934H35.3997V11.8965Z"></path>
</svg>