<svg width="648" height="137" viewBox="0 0 648 137" fill="none" xmlns="http://www.w3.org/2000/svg">
<path d="M68.4995 17.0052V61.744H68.001C66.3692 49.3709 60.2972 38.0122 50.9152 29.7821C41.5331 21.5521 29.4803 17.0114 17 17.0052V119.994C29.4793 119.99 41.5321 115.452 50.9143 107.223C60.2966 98.995 66.369 87.6375 68.001 75.2654H68.4995V119.994C75.3234 120.091 82.0985 118.83 88.431 116.286C94.7635 113.742 100.527 109.964 105.387 105.173C110.247 100.381 114.106 94.6721 116.74 88.3763C119.374 82.0806 120.73 75.3241 120.73 68.4995C120.73 61.675 119.374 54.9185 116.74 48.6227C114.106 42.327 110.247 36.6175 105.387 31.8262C100.527 27.0349 94.7635 23.2573 88.431 20.713C82.0985 18.1686 75.3234 16.9083 68.4995 17.0052Z" fill="white"/>
<path d="M631.004 74.3671V117.633H612.827V76.6225C612.827 67.032 607.044 62.1385 598.87 62.1385C589.994 62.1385 583.352 67.3113 583.352 79.6228V117.633H565.185V47.1578H583.373V55.0516C587.594 48.7097 594.929 45.1921 604.374 45.1921C619.303 45.1921 631.004 55.6206 631.004 74.3671ZM188.765 119.609C209.757 119.609 224.562 108.332 224.562 89.865C224.562 69.7115 207.926 64.4973 192.283 59.5624C177.344 55.0516 173.537 51.8134 173.537 45.7508C173.537 40.1124 178.327 35.8913 186.5 35.8913C196.514 35.8913 201.874 41.0642 205.391 48.5752L221.737 39.1295C215.116 25.2766 202.712 17 186.5 17C169.595 17 154.087 27.7078 154.087 46.3198C154.087 64.9318 168.747 71.3979 183.831 75.7741C198.491 80.0055 205.112 82.8196 205.112 90.1444C205.112 95.6483 200.973 100.573 189.324 100.573C177.064 100.573 170.154 94.6551 166.636 85.4991L150 95.2241C155.359 109.884 168.602 119.609 188.765 119.609ZM291.923 47.1889V55.4655C286.853 49.1235 279.239 45.1818 268.955 45.1818C250.209 45.1818 234.701 61.3832 234.701 82.4265C234.701 103.47 250.219 119.671 268.955 119.671C279.239 119.671 286.853 115.719 291.923 109.325V117.602H310.1V47.1578L291.923 47.1889ZM272.328 102.27C261.196 102.27 252.878 94.2309 252.878 82.3954C252.878 70.5599 261.155 62.5212 272.328 62.5212C283.501 62.5212 291.923 70.5599 291.923 82.3954C291.923 94.2309 283.605 102.27 272.328 102.27ZM326.591 117.633H344.769V18.4794H326.591V117.633ZM439.36 45.2128C429.78 45.2128 422.724 49.0097 418.358 55.3517C414.406 48.8752 407.93 45.2128 399.187 45.2128C390.166 45.2128 383.545 48.7304 379.603 54.6585V47.1578H361.394V117.633H379.582V78.0399C379.582 67.4665 385.076 62.1074 392.825 62.1074C400.574 62.1074 404.671 67.1768 404.671 75.4948V117.633H422.848V78.0399C422.848 67.4665 427.918 62.1074 435.956 62.1074C443.56 62.1074 447.792 67.1872 447.792 75.5051V117.633H465.979V74.1809C465.979 56.6035 455.406 45.1921 439.339 45.1921L439.36 45.2128ZM515.039 119.63C520.063 119.851 525.081 119.053 529.788 117.283C534.496 115.513 538.796 112.808 542.43 109.331C546.064 105.854 548.956 101.678 550.931 97.0527C552.907 92.4277 553.926 87.4506 553.926 82.4213C553.926 77.392 552.907 72.4148 550.931 67.7899C548.956 63.1649 546.064 58.988 542.43 55.5111C538.796 52.0341 534.496 49.3291 529.788 47.5592C525.081 45.7893 520.063 44.9911 515.039 45.2128C510.132 45.156 505.263 46.0805 500.719 47.9321C496.175 49.7837 492.046 52.525 488.576 55.9948C485.106 59.4647 482.365 63.5932 480.514 68.1376C478.662 72.682 477.737 77.5507 477.794 82.4575C477.75 87.3547 478.683 92.2116 480.539 96.7438C482.395 101.276 485.136 105.392 488.603 108.852C492.069 112.312 496.191 115.045 500.727 116.892C505.262 118.739 510.121 119.663 515.018 119.609L515.039 119.63ZM515.039 101.866C504.331 101.866 496.013 93.8275 496.013 82.4161C496.013 71.0048 504.29 62.9661 515.039 62.9661C525.788 62.9661 534.21 71.0048 534.21 82.4161C534.21 93.8275 525.871 101.835 515.018 101.835L515.039 101.866Z" fill="white"/>
</svg>
