<svg width="609" height="239" viewBox="0 0 609 239" fill="none" xmlns="http://www.w3.org/2000/svg">
<path d="M223.137 122.079C223.137 123.838 222.039 134.321 221.965 135.347C221.965 135.787 221.085 141.944 220.939 142.97C219.912 148.541 218.812 152.867 217.273 158.144C217.052 158.95 215.88 161.223 215.148 162.689C215.002 160.71 214.781 142.457 214.633 140.845C214.415 137.912 214.415 134.833 214.268 131.975C214.194 131.168 214.268 123.618 214.194 123.105C214.122 122.445 213.609 112.036 213.753 110.79C213.827 110.424 213.681 108.957 213.681 108.517C213.535 106.392 213.609 104.119 213.535 101.92C213.388 97.6684 213.314 93.3437 213.242 89.0189C213.168 86.8198 213.242 73.4049 213.242 73.258C213.388 73.3315 213.535 73.3315 213.609 73.5516C215.733 78.3893 217.493 83.8143 219.179 89.385C219.764 91.2181 220.426 93.197 220.572 95.029C220.646 95.5428 221.378 98.5485 221.524 99.7209C221.893 102.067 222.917 111.816 223.065 114.016C223.137 114.968 223.137 118.486 223.137 119.293C223.211 120.173 223.137 121.126 223.137 122.079ZM208.037 212.535C201.218 213.048 192.716 213.269 185.606 213.195C186.412 212.463 193.744 206.013 194.696 204.914C194.99 204.546 196.676 202.786 197.189 202.275C199.753 199.561 202.026 196.923 204.299 194.063C205.251 192.817 206.203 191.498 207.229 190.325C207.303 190.325 207.303 190.397 207.377 190.397C207.742 194.871 207.596 199.781 207.816 204.546C207.963 206.963 208.109 209.529 208.037 212.535ZM175.93 213.269C174.024 213.487 171.752 213.415 169.405 213.487C168.819 212.389 168.233 211.363 167.427 210.262C167.06 209.749 166.694 209.31 166.4 208.795C166.106 208.284 165.961 207.624 165.593 207.037C164.934 206.013 163.835 205.279 163.028 204.325C160.536 201.395 159.363 197.655 157.383 194.063C154.892 189.592 152.913 184.607 150.639 179.622C149.834 177.79 148.88 176.03 147.927 174.344C147.561 173.758 147.414 173.172 147.121 172.512C146.169 170.093 144.556 167.967 143.456 165.548C141.916 161.956 140.523 157.925 139.645 153.38C139.351 151.913 138.691 150.521 138.471 149.274C138.325 148.028 138.471 146.562 138.398 145.169C138.032 141.284 138.398 137.033 138.032 133.001C137.885 131.682 137.885 130.216 137.958 128.896C138.032 126.404 137.738 123.911 137.885 121.052C138.032 116.874 137.592 112.695 137.958 108.591C138.105 106.831 138.252 105.218 138.179 103.166C138.179 102.359 138.252 101.187 138.252 100.454C138.252 99.7944 138.471 98.8412 138.545 97.8889C138.691 95.5428 138.838 94.0767 140.084 92.7576C140.597 92.2438 140.964 92.1702 141.33 92.0246C141.697 91.8044 143.529 90.9978 144.849 91.0714C145.362 91.1446 149.467 90.7043 151.519 90.7776C153.865 90.8511 175.637 89.6788 181.794 89.8255C183.7 89.8979 185.753 89.8255 187.731 89.7519C189.711 89.6788 191.764 89.7519 193.67 89.5317C197.628 89.2381 201.511 89.5317 205.179 89.2381C205.469 89.2381 205.69 89.0923 206.351 89.1658C206.862 114.968 207.229 141.504 207.229 168.261C207.229 170.019 207.157 171.999 207.157 173.905C207.083 175.738 207.377 177.79 207.083 179.33C206.862 180.576 201.659 188.124 200.559 189.592C200.12 190.179 191.617 199.781 189.419 201.98C188.757 202.642 186.192 205.353 185.606 206.013C184.873 206.745 177.322 213.122 175.93 213.269ZM121.758 232.989C121.025 232.989 115.087 233.354 112.888 233.208C110.689 232.989 103.359 232.915 92.8758 230.57C82.4675 228.223 73.8901 223.677 68.6856 220.819C69.7122 220.673 78.8013 220.673 79.9014 220.599C81.0013 220.526 90.384 220.599 92.5098 220.599C96.6878 220.599 107.684 220.599 109.003 220.526C109.59 220.526 112.741 220.452 113.695 220.452C114.721 220.452 117.506 220.378 117.873 220.452C118.606 220.599 124.324 220.599 125.35 220.526C127.109 220.378 131.141 220.526 131.801 220.526C132.314 220.526 135.32 220.599 136.345 220.526C137.372 220.452 138.325 220.526 139.351 220.526C141.111 220.452 149.248 220.306 151.3 220.234C153.058 220.159 154.892 220.085 156.725 220.159C159.729 220.234 163.908 219.426 166.62 219.867C163.982 221.186 142.063 231.668 121.758 232.989ZM58.6433 215.467C57.5432 215.321 56.9571 214.588 56.0046 213.854C54.8311 212.902 43.5429 203.301 43.6164 202.86C41.5631 200.954 39.7311 198.609 37.752 196.556C35.7722 194.504 33.8666 192.378 32.1069 190.032C30.4207 187.76 28.5151 185.561 26.8289 183.14C25.1436 180.796 23.4572 178.669 22.1379 176.177C21.4783 174.93 20.4517 173.464 19.6452 172.145C18.9856 171.046 18.3259 169.213 18.1792 167.967C18.1059 167.528 17.8865 164.302 17.8865 163.202C17.8865 161.516 18.0324 103.606 18.0324 97.3017C18.0324 96.7887 18.0324 90.9978 18.0324 90.9978C20.159 91.1446 22.504 91.3641 24.6298 91.6575C28.4416 92.1702 46.1814 92.8308 51.0191 93.2705C53.4385 93.4906 55.8579 93.4906 58.2771 93.6364C60.622 93.7833 70.2251 94.0035 72.7177 94.1493C75.0637 94.296 77.4095 94.296 79.7545 94.3694C82.3208 94.5164 84.8124 94.4429 87.0849 94.8098C89.3576 95.1759 91.5565 95.6897 92.8758 96.642C93.9026 97.375 94.7823 98.5485 95.0016 99.2081C95.3687 100.088 96.3942 103.899 96.4676 104.852C96.5411 105.806 96.7613 107.125 96.8347 107.931C97.0549 111.01 97.2007 121.199 97.2007 123.325C97.2007 125.451 96.6878 133.807 96.3942 135.86C96.1017 137.766 95.809 139.672 95.5154 141.651C94.342 148.981 92.2164 155.652 89.9437 162.616C87.7445 169.36 86.0592 176.47 84.007 183.214C82.9069 186.806 82.4675 190.397 81.294 193.771C80.4143 196.19 79.5343 198.388 78.2152 200.441C77.5553 201.467 76.8957 202.421 76.2363 203.666C74.9168 205.72 73.8169 206.817 72.4243 208.503C71.9847 209.09 70.8112 210.483 70.3718 211.142C69.5653 212.535 68.4663 213.487 68.0991 215.321C65.1672 215.395 61.4286 215.981 58.6433 215.467ZM37.752 215.981C37.0915 215.981 35.9923 216.127 35.3328 216.127C33.4263 216.201 32.0337 216.275 30.128 216.275C28.2949 216.275 26.3895 216.275 24.484 216.275C22.5775 216.275 20.4517 216.42 18.5462 216.127C18.4728 213.122 18.4728 210.044 18.2526 207.037C18.1792 206.085 18.3259 205.059 18.3259 204.179C18.3259 202.714 18.3259 200.515 18.3259 198.976C18.3259 195.017 18.1792 191.864 18.3995 187.539C18.4728 187.465 18.2526 184.753 18.2526 184.607C18.3259 184.607 20.9645 188.491 20.9645 188.565C27.1225 196.41 31.5208 202.642 39.1437 209.164C41.0502 210.775 42.5897 212.681 44.6419 214.221C45.2293 214.662 45.6687 215.101 46.4017 215.76C43.3962 215.542 40.5372 215.981 37.752 215.981ZM19.2058 64.2425C19.7187 62.9956 20.5984 61.603 21.4783 60.2836C22.2848 59.1112 23.2372 57.9377 24.484 57.2047H24.6298C26.6831 59.3303 29.2481 60.7965 31.5208 62.7019C33.7931 64.6083 36.286 66.4407 38.6308 68.2001C42.1503 70.9122 45.4485 72.6719 49.2605 75.0913C50.4328 75.8243 54.245 77.2169 55.0514 78.4628C43.6164 79.7087 19.1325 82.3482 18.6931 82.2013C18.5462 78.7564 18.9122 76.1901 18.7655 72.8911C18.7655 70.2525 18.3259 66.4407 19.2058 64.2425ZM20.0123 37.9987C21.405 37.9256 23.4572 38.2923 25.217 38.219C26.3895 38.1456 27.7821 38.0723 28.9545 38.439C28.0757 39.7585 27.049 40.8575 25.9501 41.8107C24.0435 40.565 22.0646 39.3191 19.9388 38.219C19.9388 38.0723 19.9388 37.9987 20.0123 37.9987ZM71.5442 89.4583C67.8791 89.385 65.3874 88.8722 61.7955 88.5785C58.9367 88.3584 55.7112 87.9924 52.8522 87.7719C45.3749 87.2594 37.8978 86.3793 30.2749 86.3061C31.0812 85.6463 32.474 85.7932 33.7199 85.7932C42.1503 85.5732 51.6797 85.3536 60.1826 84.9133C61.4285 84.84 64.4342 84.4004 65.6077 85.1334C67.0003 85.9399 70.5185 88.4328 71.5442 89.4583ZM39.9511 59.0368C41.1237 59.6239 42.7364 60.6498 43.9089 61.3828C46.1081 62.7019 47.7211 63.6551 49.9934 64.901C51.0927 65.4884 52.2661 66.148 53.365 66.8075C54.4653 67.4671 55.5641 68.2001 56.6644 68.7865C58.057 69.5195 58.9367 70.0334 60.4018 70.7663C61.1359 71.1324 62.3818 71.7922 63.0414 72.1581C63.9213 72.6719 64.9468 73.0378 65.9004 73.5516C66.5598 73.9178 67.7333 74.3581 68.8323 74.871C70.6654 75.8243 72.4974 76.1901 74.0371 77.5831C71.471 77.9499 68.5398 77.9499 66.0471 78.0234C65.5341 78.0234 64.8745 78.2426 64.3607 78.0966C63.7744 77.9499 62.8212 77.1434 62.0882 76.6299C60.4762 75.5307 59.0103 74.7975 57.3974 73.7709C56.2973 73.1113 53.0726 70.6195 52.4128 70.1792C51.8256 69.8131 49.1137 68.2736 48.3072 67.6873C47.5741 67.1012 46.6944 66.6608 46.0347 66.148C45.5952 65.7809 43.1758 64.3147 42.3696 63.8022C41.8567 63.435 39.8043 61.8964 39.2182 61.5295C37.9713 60.7965 37.3117 59.99 36.0658 59.1836C35.6987 58.9645 34.3796 58.0109 34.0133 57.7175C33.0601 56.8385 31.594 56.178 30.4951 55.445C29.3217 54.6385 28.1493 53.7597 27.2692 52.8065C27.3428 52.8065 27.3428 52.7329 27.4161 52.7329C28.2949 52.8798 28.7354 53.0265 29.6152 53.4659C32.9134 55.665 36.4316 57.2047 39.9511 59.0368ZM97.2741 57.7908C98.154 55.2992 99.3273 52.8798 100.647 51.2668C101.16 50.6807 101.966 50.0212 102.626 49.5083C103.285 48.9209 103.872 48.5551 104.385 48.2615C106.658 47.0155 110.103 46.1357 112.962 46.2824C115.967 46.3559 119.265 48.6282 120.658 50.0944C121.318 50.754 122.197 51.9999 122.858 53.0265C124.543 55.665 125.497 57.5706 126.376 61.1633C127.036 63.8022 127.476 65.8542 127.329 68.7865C126.963 74.6508 124.397 80.2226 120.512 83.1545C119.559 83.8875 115.967 86.7464 112.594 86.8198C111.496 86.8198 110.103 86.7464 109.37 86.5996C107.757 86.3793 105.558 85.7932 104.018 85.0602C102.479 84.3272 100.72 82.6409 99.7666 81.6152C98.3009 80.0023 97.3474 77.3636 96.5411 74.871C94.8558 69.0066 95.4419 62.9221 97.2741 57.7908ZM83.2731 203.594C83.8601 201.98 84.4464 201.174 85.0325 199.489C85.2527 198.755 85.9857 197.435 86.2784 196.703C86.5722 195.823 86.7189 195.163 87.0116 194.284C87.2316 193.55 87.7445 192.452 88.0381 191.718C88.1848 191.205 88.4051 190.323 88.6246 189.738C88.9914 188.786 89.2107 188.199 89.5043 187.172C90.1639 184.827 91.3363 182.48 91.8501 179.916C92.4364 177.131 93.3163 174.491 94.1228 172.292C94.4155 171.559 94.7089 170.532 95.0016 169.727C95.5154 168.407 95.6621 167.087 96.3942 166.207H96.5411C96.7613 168.334 97.641 170.239 97.3474 172.878C97.2007 174.052 96.6146 175.591 96.1017 176.984C94.7823 180.869 93.5354 185.048 92.2164 188.932C91.3363 191.424 90.3108 194.063 88.9914 196.336C87.4518 199.194 85.9857 202.275 83.2731 203.594ZM91.3363 214.954C87.0849 214.808 82.3208 215.247 78.1427 215.175C78.9482 214.441 79.9014 214.074 80.7812 213.415C81.6609 212.828 82.4675 211.948 83.3463 211.583C83.8601 211.363 84.5197 211.435 85.106 211.216C89.2107 209.896 91.3363 204.399 93.1696 200.587C93.6823 199.489 94.4155 198.388 94.929 197.29C95.4419 196.19 95.5888 194.871 96.0282 193.696C97.1281 190.325 98.3009 186.659 99.4008 183.288C99.4008 183.14 99.4743 183.067 99.5466 182.995C99.6199 182.995 99.6199 183.067 99.6935 183.067C100.426 188.124 99.6935 192.744 98.7403 197.07C98.0804 199.856 97.0549 201.615 95.7346 203.74C94.6356 205.574 93.2428 207.256 92.3631 209.384C91.7034 211.216 91.1171 212.828 91.3363 214.954ZM104.971 187.321C104.751 184.607 103.945 181.969 103.872 179.33C103.872 178.669 104.018 178.009 103.945 177.423C103.872 176.03 103.432 174.638 103.505 173.319C103.579 172.218 103.945 170.899 104.312 169.58C104.898 167.087 105.705 164.961 106.364 162.689C106.951 160.71 107.024 158.584 108.417 157.411C108.783 159.171 109.003 161.37 109.003 163.642C109.003 165.841 108.563 168.114 108.637 170.019C108.71 171.632 109.076 173.172 109.076 174.785C109.076 176.251 108.637 177.79 108.563 179.475C108.49 180.941 108.417 182.408 108.417 183.873C108.343 186.513 108.417 189.004 108.563 191.498C108.563 192.011 108.563 192.598 108.563 193.111C108.27 197.949 107.684 204.179 103.066 204.62C104.312 202.275 104.751 199.561 104.898 196.775C105.191 193.771 105.191 190.471 104.971 187.321ZM115.381 212.535C115.454 213.561 115.747 213.487 115.967 214.662C111.861 214.662 107.463 214.882 103.579 214.882C103.652 214.074 104.532 213.854 104.971 213.635C106.878 212.535 108.49 211.729 110.103 210.262C110.983 209.456 112.008 208.503 112.815 207.256C113.548 206.233 114.574 204.694 114.574 203.301C114.574 202.786 114.354 202.421 114.281 201.906C113.988 199.122 114.281 195.823 114.281 192.598C114.281 183.655 114.428 173.098 114.281 164.815C114.207 161.223 114.207 156.825 116.114 154.772C116.334 154.552 116.48 154.405 116.627 154.113C116.847 153.819 118.386 152.353 118.899 152.573C120.586 153.233 122.418 155.872 122.711 158.071C122.931 159.757 122.858 161.516 123.151 163.349C123.884 168.334 124.47 173.245 124.47 179.183C124.47 182.701 124.69 186.22 125.203 189.884C125.79 194.504 126.376 200.074 124.031 202.567C122.271 204.474 119.046 205.279 117.213 207.404C116.553 208.284 115.234 210.409 115.381 212.535ZM136.639 84.9133C135.979 85.3536 135.32 86.0135 134.733 86.8923C134.366 87.4061 133.78 88.652 133.633 89.0923C133.12 90.7776 133.34 92.1702 133.267 92.5374C132.974 95.6897 133.633 98.9144 133.34 102.14C133.193 103.606 133.193 105.292 133.12 106.759C133.047 108.371 132.9 109.763 132.827 111.376C132.754 111.962 132.754 113.283 132.754 113.869C132.46 118.047 132.607 121.565 132.387 125.671C132.241 128.236 132.387 130.582 132.387 133.001C132.46 135.347 132.533 137.546 132.754 139.965C132.827 140.845 133.047 141.944 133.193 142.897C133.413 144.876 134 146.782 134.146 148.981C134.293 151.547 134.073 154.259 134.073 156.825C134.073 159.317 134.366 161.809 134 164.228C132.754 162.029 132.314 158.95 130.701 157.118C129.748 152.94 128.795 148.908 126.449 146.269C125.57 145.316 125.057 144.51 123.81 143.777C122.271 142.97 120.219 142.75 117.799 142.97C114.648 143.19 111.056 145.169 109.003 147.075C108.49 147.589 107.83 148.395 107.61 148.908C107.317 149.421 106.658 150.227 106.364 150.74C105.484 152.353 104.898 153.38 104.092 154.772C103.066 156.606 103.212 159.171 101.672 160.49C101.893 158.071 102.039 154.626 101.6 152.134C101.453 151.473 101.013 150.96 101.013 150.521C100.939 149.494 101.672 147.222 101.893 146.123C102.26 143.923 102.552 142.311 102.699 140.258C102.846 138.792 103.139 137.4 103.139 135.933C103.139 134.321 103.212 132.781 103.359 131.022C103.432 130.216 103.359 129.629 103.432 128.969C103.579 127.356 103.505 125.524 103.359 123.911C103.285 122.225 103.212 120.685 103.139 119.219C102.993 116.068 102.846 112.989 102.333 109.91C101.893 107.125 101.233 104.266 100.647 101.407C99.4008 95.4697 95.2952 91.8775 89.5043 90.7043C88.4775 90.4849 87.3051 90.4849 86.1328 90.1913C84.1528 89.6052 81.6609 89.5317 79.7545 88.652C77.8489 87.7719 74.2572 85.5005 72.6445 84.1802C78.8748 84.6207 89.1372 83.8143 94.0493 85.2069C95.3687 85.6463 97.0549 86.5996 98.154 87.6988C99.4743 89.0923 102.846 91.8775 110.176 92.9767C112.082 93.1235 116.114 92.6107 117.726 91.9511C119.339 91.2181 120.805 90.2649 122.051 89.3116C122.418 89.0189 125.35 86.5264 126.156 85.6463C126.963 84.7675 128.355 84.7675 128.795 84.6207C129.309 84.4004 130.554 84.4004 131.214 84.1802C133.56 83.5207 134.953 82.5675 138.325 83.4472C137.812 83.9601 137.225 84.5473 136.639 84.9133ZM129.088 197.07C129.162 195.236 128.942 193.917 129.088 192.303C129.162 191.718 129.235 190.325 129.235 189.812C129.309 189.078 129.088 188.565 129.162 187.76C129.162 187.321 129.162 186.146 129.162 185.633C129.162 184.827 129.015 184.46 129.015 183.727C129.015 182.408 129.015 181.308 128.942 179.988C128.868 178.742 128.795 177.35 128.795 176.104C128.795 175.005 128.649 173.832 128.722 172.805C128.795 171.485 128.649 169.799 128.722 168.48C128.795 166.94 129.015 165.474 129.162 164.228C129.162 164.082 129.235 164.082 129.235 163.936C129.821 164.302 130.115 165.621 130.554 166.574C131.287 168.261 132.094 169.946 132.827 171.632C133.193 172.439 133.854 173.319 134 174.125C134.146 174.711 134 175.444 134 176.03C134.073 177.496 134.366 178.963 134.44 180.502C134.513 181.969 134.587 183.508 134.513 185.048C134.366 187.172 134.22 189.153 134.366 191.205C134.659 195.751 134.293 200.515 132.607 203.301C131.581 204.987 129.675 206.306 127.842 206.159C127.989 204.914 129.088 204.107 129.162 202.201C129.162 200.515 129.015 198.976 129.088 197.07ZM138.471 194.43C138.471 191.79 137.958 188.491 138.545 186.292C138.545 186.22 138.618 186.074 138.691 186H138.838C141.77 193.037 144.776 199.707 149.467 204.84C151.006 206.524 152.839 207.917 154.305 209.675C154.965 210.336 155.478 210.555 156.137 211.07C156.87 211.583 157.971 212.022 158.849 212.315C159.729 212.607 160.975 212.607 161.489 213.561C154.965 214.002 148.441 213.415 142.21 213.854C140.523 213.928 138.985 214.221 137.372 214.221C133.707 214.295 129.748 214.295 125.863 214.221C126.596 212.902 127.769 211.803 129.601 211.655C130.481 211.583 131.361 211.803 132.241 211.583C134.513 210.849 136.712 207.917 137.299 205.353C137.592 203.96 137.445 202.347 137.592 200.808C137.885 198.902 138.471 196.775 138.471 194.43ZM138.179 164.596C138.179 164.448 138.252 164.448 138.252 164.302C138.398 164.302 138.398 164.375 138.545 164.375C141.623 171.999 145.948 178.963 149.32 186.513C151.006 190.251 152.985 193.917 154.598 197.655C156.211 201.467 158.63 204.474 161.048 207.55C159.656 208.356 157.603 207.184 156.358 206.454C155.845 206.159 155.258 205.426 154.598 204.914C152.985 203.594 150.859 201.762 149.834 199.856C149.32 198.902 148.954 197.729 148.441 196.629C145.875 191.424 143.602 186.587 141.111 181.015C140.67 180.062 140.231 178.889 139.717 177.79C139.131 176.763 138.325 175.518 138.179 174.785C137.958 173.392 138.179 171.412 138.179 169.653C138.252 167.82 138.032 165.841 138.179 164.596ZM33.3528 42.9109C33.7931 42.2503 37.5319 38.2923 37.752 37.9256C39.6575 37.9256 40.5372 37.9987 43.9089 37.9256C51.3129 37.7785 58.7165 38.1456 66.2671 38.1456C70.0782 38.1456 74.2572 37.706 77.4822 37.9256C78.4354 37.9987 105.998 37.706 109.296 37.9256C111.202 38.0723 116.334 38.219 117.213 38.219C119.046 38.1456 120.439 38.2923 121.905 38.219C123.444 38.1456 129.968 37.9987 131.508 38.1456C133.854 38.2923 136.345 38.0723 138.912 38.0723C146.169 38.0723 154.012 38.8788 161.048 38.6586C165.667 38.5117 170.506 39.0255 175.637 38.7317C177.908 38.5861 180.401 38.6586 182.967 38.6586C185.606 38.6586 188.318 37.9987 190.15 38.5861C191.543 39.0255 192.497 40.7108 193.449 41.8841C191.323 43.4238 189.198 44.9631 186.925 46.3559C184.652 47.7485 182.674 48.9209 180.401 50.4606C178.422 51.7797 176.442 53.2458 174.171 54.4191C172.044 55.5183 169.773 56.3982 167.5 57.4983C163.249 59.6973 159.07 62.1158 154.818 64.4616C148.441 67.98 142.063 71.3525 136.125 75.2369C134.146 76.5573 132.314 78.2426 130.042 78.9022C130.261 78.0234 130.701 77.2904 130.922 76.3372C132.533 68.9333 130.189 60.21 128.062 54.9321C126.669 51.5605 124.983 48.5551 122.491 46.209C120.072 43.9365 116.48 42.1768 112.668 41.8841C111.056 41.7374 109.663 42.1043 108.124 42.3235C106.658 42.5437 105.191 42.4706 103.798 42.8373C101.38 43.497 98.887 45.9156 97.3474 47.9677C95.6621 50.2413 94.196 52.5127 93.1696 55.445C92.6567 56.8385 92.5098 58.5974 92.0693 60.2836C91.3363 63.5095 90.7502 66.9542 91.3363 70.8386C91.6299 72.525 91.7766 74.2848 92.2164 75.7507C92.5098 76.7766 93.0961 77.5831 93.3163 78.683C90.0904 78.6095 87.4519 76.7031 84.5197 75.8243C81.5878 75.0178 78.9482 73.5516 76.3094 72.3783C68.0991 68.713 60.4762 64.8277 52.9256 60.5038C50.4328 59.0368 48.7475 57.5706 46.255 56.178C43.7622 54.7854 41.2704 52.7329 38.7779 51.3403C36.3585 49.9477 32.7667 47.9677 31.0079 45.6229C31.5208 44.8164 32.9134 43.5694 33.3528 42.9109ZM48.087 28.3225C49.1138 27.517 53.6587 24.2913 54.978 23.2646C60.6956 19.0132 68.026 15.5682 75.283 12.3423C76.3094 11.9029 84.7401 9.26342 88.5511 8.23769C90.1639 7.8708 96.4676 6.62488 97.9337 6.40471C101.672 5.89184 110.542 4.93861 116.114 5.01208C121.685 5.08532 128.649 5.59818 132.241 6.25799C135.832 6.91853 144.703 8.60384 151.739 11.3891C161.122 14.9086 172.264 21.8719 173.144 22.6049C173.438 22.8987 181.574 28.6896 181.941 29.4958C181.355 30.2289 163.394 30.3758 161.048 30.3758C155.038 30.3758 148.88 30.1556 142.724 30.3758C136.566 30.595 130.408 30.595 124.397 30.6685C122.858 30.6685 121.245 30.5216 119.706 30.595C118.459 30.6685 113.474 30.5216 112.229 30.595C109.809 30.8152 94.4887 30.6685 92.5098 30.6685C89.4308 30.6685 86.4254 30.8152 83.2731 30.595C79.7545 30.3023 68.759 30.3023 67.0737 30.3023C63.4817 30.3023 52.4128 30.3758 50.8 30.5216C49.1138 30.595 47.4274 30.7417 45.8156 30.3023C46.255 29.5693 47.2082 28.9823 48.087 28.3225ZM140.964 77.8765C141.33 77.2169 142.136 76.8499 142.724 76.4104C144.335 75.2369 145.948 73.9178 147.927 72.8186C153.058 69.9598 158.41 67.4671 163.394 64.3147C165.887 62.7019 168.819 61.3828 171.531 60.6498C171.678 60.6498 171.678 60.6498 171.825 60.5772H171.972C166.253 65.1212 159.729 69.5195 153.205 73.6251C152.18 74.2848 151.006 74.9442 149.907 75.604C148.587 76.4839 147.488 77.5831 145.948 77.8032C144.115 78.1692 142.43 77.8765 140.964 77.8765ZM144.262 85.4261C145.142 84.6931 146.315 83.374 147.634 83.1545C148.147 83.0813 149.027 83.1545 149.467 83.0813C151.006 82.8611 152.693 83.0813 154.305 83.0813C159.143 83.0813 163.982 83.374 168.673 83.374C169.773 83.374 170.945 83.1545 172.044 83.1545C173.584 83.1545 175.27 82.9343 176.809 83.0078C179.229 83.0813 181.355 83.0078 183.773 83.1545C185.093 83.227 187.292 83.1545 188.611 83.227C192.642 83.4472 196.382 83.374 200.338 84.4004C193.157 85.2069 185.679 86.0135 178.202 86.0135C171.019 86.0135 163.835 86.3793 156.87 86.9658C155.112 87.1125 153.058 87.1125 151.226 87.1858C149.174 87.2594 147.341 87.4796 145.436 87.5528C143.896 87.5528 142.503 87.4061 141.111 87.919C142.063 86.9658 143.163 86.3062 144.262 85.4261ZM199.459 49.3614C200.559 50.3871 201.585 51.6339 202.611 53.0265C203.565 54.2724 204.299 55.7386 205.179 57.0577C205.397 57.4983 205.838 58.0844 205.984 58.5974C206.351 60.1369 206.058 62.1891 206.131 63.8753C206.203 65.7075 206.131 67.5406 206.131 69.3004C206.131 72.8186 206.131 75.8243 205.984 79.5618C200.559 79.8554 195.137 78.9757 189.711 78.8298C187.951 78.7564 185.753 78.8298 184.067 78.6095C180.401 78.2426 177.175 78.3161 173.438 78.3161C171.531 78.3161 169.626 78.3893 167.793 78.3893C165.961 78.4628 164.86 78.2426 163.102 78.0966C161.122 77.9499 158.63 78.3893 156.725 77.8765C156.87 77.2904 157.75 76.9967 158.19 76.6299C159.143 75.8967 160.096 75.2369 161.122 74.5775C164.054 72.6719 167.133 70.5463 170.065 68.5672C174.757 64.9745 178.715 62.336 183.334 59.3303C184.799 58.3771 186.338 57.3514 187.879 56.3982C189.711 55.2257 191.617 54.0524 193.523 52.9532C195.502 51.8532 197.41 50.3871 199.386 49.288H199.459V49.3614ZM10.702 155.505C9.45611 151.693 8.06346 147.589 7.25701 143.19C6.74415 140.331 6.37717 137.179 5.86433 134.027C5.27809 130.509 4.54504 124.644 4.98448 121.346C4.98448 116.141 5.49827 110.057 6.45056 104.485C6.74415 102.8 7.69738 97.375 7.76984 96.642C7.91664 95.3961 10.0424 87.4061 10.702 86.3793C10.7754 86.3793 10.702 95.029 10.5562 99.2081C10.5562 100.601 11.8754 147.662 11.8754 148.614C11.8754 149.714 11.6552 157.118 12.1681 159.391C11.3617 158.291 11.2158 156.825 10.702 155.505ZM225.705 89.2381C223.945 82.2748 221.672 75.8243 219.033 69.8131C218.153 67.8342 217.052 65.1212 216.1 63.2157C215.002 61.0901 213.827 59.8442 213.168 57.3514C212.801 55.8853 212.655 55.0789 212.729 53.613C212.875 50.9734 212.581 48.3348 212.581 45.6229C212.581 42.9844 212.801 40.1979 212.434 37.6329C212.142 35.5071 212.729 33.3802 212.142 31.3281C211.262 31.1088 210.528 30.8887 209.65 30.8152C207.89 30.595 205.91 30.9619 204.225 30.595C203.345 30.4483 191.838 29.6428 191.104 29.4958C190.297 29.3491 189.124 27.8831 188.244 27.2234C187.218 26.4169 186.045 25.6839 185.166 25.0978C182.894 23.7784 180.988 22.0922 179.155 20.6996C175.05 17.6206 170.651 15.2745 166.4 12.636C166.4 12.5625 166.4 12.5625 166.4 12.4893C166.253 12.4158 166.034 12.3423 165.887 12.2691C165.887 12.3423 165.887 12.4158 165.887 12.4893C165.373 12.4893 165.154 12.2691 164.934 12.0499C164.934 11.9764 164.934 11.9029 164.934 11.9029C164.274 11.6093 163.615 11.3891 162.955 11.0964C162.735 11.0964 162.661 11.0232 162.588 10.8762C162.295 10.7295 162.075 10.5838 161.783 10.4368C161.562 10.3636 161.269 10.2901 161.048 10.2166C160.536 10.2166 159.07 9.41014 158.41 9.11769C156.431 8.23769 154.892 7.57811 152.985 6.91853C152.106 6.62488 151.006 6.4047 150.2 5.89184C150.053 5.81836 149.906 5.74513 149.76 5.59818C148.954 5.30549 148.147 5.01208 147.341 4.79191C147.341 4.86513 147.414 4.93861 147.414 5.01208C140.89 2.81293 133.926 1.71373 126.523 0.613802C122.711 0.0274596 118.532 0.174401 114.501 0.0274546C112.449 -0.0457778 110.542 0.027455 108.563 0.247634C106.511 0.46685 104.458 0.466854 102.552 0.613802C100.867 0.760508 99.1806 1.19991 97.4943 1.42033C95.7346 1.71374 94.0493 1.93295 92.3631 2.2266C82.0272 4.05887 73.8901 7.4314 65.6077 11.1699C56.0046 15.4947 47.9412 21.4325 40.1705 27.6628C38.7779 28.7628 37.4584 30.3023 35.8455 30.5216C33.573 30.7417 23.5307 30.6685 21.3316 31.0354C20.3048 31.1822 17.6663 31.2546 17.1535 31.2546C16.7865 31.2546 11.8754 31.6217 11.5818 32.0611C9.67632 34.6272 11.3617 41.3713 11.3617 44.7429C11.3617 46.5762 11.3617 48.2615 11.2892 49.8741C11.2158 51.487 11.069 55.2992 11.1424 55.8121C11.3617 57.9377 11.7286 65.6342 11.2892 67.3939C10.702 69.8865 8.94327 73.1848 8.06345 75.2369C7.1836 77.3636 3.7386 89.0189 3.445 90.1913C2.63855 94.0035 2.12572 97.8155 1.31928 101.626C0.733039 104.193 0 115.554 0 118.341C0 119.733 0.366049 125.964 0.439447 127.429C1.31928 142.237 5.05788 155.798 9.67632 167.087C10.2626 168.627 12.0222 172.292 12.2415 173.684C12.3883 174.565 12.3149 176.837 12.3883 177.79C12.5351 180.649 12.3883 183.36 12.4617 185.853C12.4617 186.587 12.4617 187.685 12.4617 188.345C12.3883 189.519 12.3883 197.655 12.3883 198.828C12.3883 202.421 12.4617 206.085 12.4617 209.529C12.4617 210.409 12.3883 213.561 12.4617 214.295C12.6085 216.568 12.4617 218.913 12.5351 220.965C12.6085 221.552 12.9745 221.771 13.4149 221.992C14.3672 222.138 29.5419 222.066 30.128 221.992C30.5676 221.992 32.987 221.919 33.8666 221.771C35.9923 221.552 50.2126 221.258 52.7055 221.112C52.7055 221.112 55.1983 222.505 56.2973 223.018C57.5432 223.531 59.6697 224.485 60.8423 224.924C63.1883 225.95 65.6077 227.05 67.9524 228.149C72.571 230.275 77.4095 232.476 82.5399 234.088C90.1639 236.507 98.374 237.753 107.537 238.633C109.223 238.78 111.935 238.926 113.548 238.926C115.161 238.926 116.847 239 118.532 239C121.685 239 124.837 238.559 127.769 238.12C136.566 236.873 143.749 235.114 151.226 232.62C159.51 229.836 167.5 225.804 174.317 221.627C175.27 221.039 176.516 219.867 177.322 219.719C178.055 219.572 195.796 219.206 196.822 219.28C197.628 219.354 211.262 219.354 213.535 219.059C213.535 219.059 216.1 219.206 215.733 215.247C216.028 212.535 215.661 180.649 215.808 179.696C215.88 178.742 215.733 177.496 215.808 176.397C216.028 174.344 217.347 172.439 218.373 170.386C219.472 168.261 220.279 166.062 220.939 164.228C222.552 160.124 224.238 155.652 225.336 151.327C226.511 146.709 227.463 141.871 228.27 136.886C229.148 131.682 229.222 125.964 229.222 120.319C229.369 108.883 228.124 98.622 225.705 89.2381Z" fill="white"/>
<path fill-rule="evenodd" clip-rule="evenodd" d="M110.467 47.9697C111.053 47.9697 113.032 48.9221 113.473 49.3624C116.038 51.8553 115.305 59.1857 115.012 63.8765C114.865 65.9289 113.986 68.4215 111.932 68.4948C111.053 68.4948 109.441 67.8354 108.781 67.0288C107.682 65.7096 106.655 62.1169 106.508 59.8453C106.216 56.6929 106.728 54.1269 107.608 52.0009C108.195 50.5349 108.56 48.1164 110.467 47.9697Z" fill="white"/>
<path fill-rule="evenodd" clip-rule="evenodd" d="M121.904 72.38C121.61 72.8203 121.244 73.113 120.291 72.8203C119.924 72.6003 119.411 72.5268 119.191 72.1598C118.898 71.8671 118.825 71.8671 118.458 71.5004C116.846 70.0351 116.405 67.3221 116.186 64.0964C116.039 62.0442 116.113 59.4056 116.699 57.8661C117.285 56.3264 117.872 55.0073 118.898 54.2008C119.411 53.6879 120.291 53.835 120.95 54.3477C124.469 57.28 123.37 67.9818 121.904 72.38Z" fill="white"/>
<path fill-rule="evenodd" clip-rule="evenodd" d="M100.566 55.8123C101.666 55.5186 104.598 56.9847 105.038 58.3773C105.552 60.7232 105.918 64.9023 105.698 68.2738C105.624 69.2262 105.552 70.6932 105.258 71.2795C104.818 72.1592 103.939 73.4786 102.692 73.3318C102.032 73.3318 99.4672 70.3263 99.0269 67.6876C98.3671 63.8024 99.5406 59.4773 100.2 56.1057C100.42 55.959 100.493 55.8855 100.566 55.8123Z" fill="white"/>
<path fill-rule="evenodd" clip-rule="evenodd" d="M121.39 78.5374C120.73 79.1235 120.363 79.3437 119.777 79.3437C119.41 79.2705 119.117 79.0503 118.824 78.9034C118.238 79.197 118.018 79.7831 117.505 80.1502C115.965 81.1759 113.766 81.3961 111.714 81.6897C111.053 81.7631 110.687 82.276 109.734 82.1293C108.635 81.9822 107.388 81.2492 106.069 80.8834C105.19 80.5896 104.237 80.7365 103.577 80.4438C102.403 79.8566 101.964 78.2438 101.011 77.8775C100.717 78.0246 100.498 78.3173 100.131 78.2438C99.3246 77.5108 99.0319 75.8255 99.3981 74.4328C99.6917 73.773 100.058 73.5528 100.351 73.186C100.571 73.1125 100.645 73.04 100.791 73.186C101.084 74.0657 101.744 74.652 101.744 75.8255C102.257 76.7787 103.357 77.2916 104.382 77.8044C105.776 78.5375 107.169 79.2705 109.221 78.9769C112.373 78.6107 115.965 77.0714 117.578 75.3125C117.651 74.2124 117.211 73.6997 117.064 72.9667C117.724 72.0135 118.457 73.1858 119.044 73.3325C120.143 74.652 121.609 76.5585 121.39 78.5374Z" fill="white"/>
<path d="M360.263 101.57C356.693 103.749 353.954 106.797 352.024 110.713C350.132 114.63 349.188 119.182 349.188 124.334C349.188 129.503 350.132 134.056 352.024 137.972C353.954 141.888 356.693 144.936 360.263 147.136C363.829 149.315 368.113 150.415 373.128 150.415C378.895 150.415 383.701 148.968 387.559 146.094C391.398 143.2 394.099 139.303 395.642 134.423L387.212 132.088C386.229 135.329 384.569 137.875 382.234 139.727C379.9 141.599 376.852 142.525 373.128 142.525C369.773 142.525 366.973 141.772 364.716 140.267C362.481 138.744 360.783 136.641 359.643 133.94C358.525 131.201 357.986 127.999 357.986 124.334C358.004 120.687 358.564 117.504 359.681 114.784C360.821 112.044 362.499 109.922 364.716 108.417C366.973 106.913 369.773 106.161 373.128 106.161C376.852 106.161 379.9 107.087 382.234 108.939C384.569 110.771 386.229 113.317 387.212 116.598L395.642 114.263C394.099 109.382 391.398 105.485 387.559 102.61C383.701 99.7168 378.895 98.2705 373.128 98.2705C368.113 98.2705 363.829 99.3697 360.263 101.57Z" fill="white"/>
<path d="M346.972 79.6164C350.54 81.7967 354.824 82.8956 359.82 82.8956C365.589 82.8956 370.393 81.4493 374.252 78.5746C378.089 75.681 380.79 71.7842 382.353 66.9036L373.903 64.5696C372.92 67.8105 371.28 70.3569 368.926 72.2088C366.591 74.0806 363.563 75.0063 359.82 75.0063C356.465 75.0063 353.668 74.2535 351.409 72.7488C349.173 71.2245 347.474 69.1224 346.336 66.4217C345.236 63.6825 344.678 60.4792 344.678 56.8141C344.696 53.1676 345.256 49.985 346.376 47.2647C347.512 44.5255 349.191 42.4037 351.409 40.8987C353.668 39.394 356.465 38.6414 359.82 38.6414C363.563 38.6414 366.591 39.5673 368.926 41.4194C371.28 43.2523 372.92 45.7985 373.903 49.0781L382.353 46.7443C380.79 41.8633 378.089 37.9667 374.252 35.0919C370.393 32.1982 365.589 30.752 359.82 30.752C354.824 30.752 350.54 31.8512 346.972 34.0503C343.402 36.2307 340.645 39.2784 338.734 43.195C336.826 47.1106 335.879 51.663 335.879 56.8141C335.879 61.9849 336.826 66.5373 338.734 70.4529C340.645 74.3693 343.402 77.4172 346.972 79.6164Z" fill="white"/>
<path d="M333.148 141.715C331.586 142.274 329.909 142.544 328.115 142.544C325.105 142.544 322.444 141.734 320.129 140.113C317.833 138.493 316.308 136.198 315.576 133.246L306.875 134.558C307.395 137.818 308.591 140.653 310.461 143.047C312.353 145.399 314.763 147.213 317.697 148.487C320.63 149.779 323.927 150.415 327.594 150.415C330.178 150.415 332.628 150.087 334.962 149.431C337.336 148.775 339.419 147.811 341.253 146.519C343.084 145.226 344.531 143.587 345.591 141.657C346.692 139.67 347.232 137.394 347.232 134.809C347.232 132.3 346.769 130.237 345.842 128.616C344.935 126.996 343.779 125.684 342.37 124.681C340.961 123.697 339.477 122.925 337.952 122.366C336.428 121.806 335.04 121.362 333.824 121.035L324.855 118.546C323.715 118.237 322.597 117.871 321.477 117.427C320.398 116.964 319.471 116.347 318.738 115.575C317.986 114.803 317.621 113.78 317.621 112.565C317.621 111.254 318.044 110.135 318.911 109.151C319.779 108.186 320.939 107.435 322.348 106.933C323.793 106.393 325.336 106.141 327.013 106.161C328.711 106.219 330.333 106.566 331.838 107.203C333.362 107.859 334.655 108.804 335.696 110.058C336.758 111.292 337.47 112.777 337.857 114.533L346.847 112.97C346.113 109.904 344.84 107.26 343.026 105.08C341.214 102.901 338.977 101.261 336.292 100.123C333.593 98.9654 330.545 98.367 327.112 98.3482C323.735 98.3283 320.649 98.8496 317.871 99.9486C315.11 101.029 312.913 102.669 311.254 104.888C309.632 107.049 308.823 109.749 308.823 112.97C308.823 115.17 309.189 117.022 309.903 118.546C310.656 120.012 311.581 121.246 312.718 122.231C313.878 123.175 315.092 123.928 316.366 124.488C317.659 125.009 318.873 125.433 319.994 125.761L332.917 129.581C333.842 129.87 334.655 130.198 335.349 130.603C336.061 130.97 336.643 131.394 337.085 131.857C337.548 132.32 337.895 132.84 338.126 133.439C338.357 134.018 338.473 134.655 338.473 135.349C338.473 136.911 337.972 138.223 336.989 139.284C336.003 140.345 334.731 141.155 333.148 141.715Z" fill="white"/>
<path d="M396.273 31.7939H387.898V81.8353H396.273V31.7939Z" fill="white"/>
<path d="M598.283 99.3135L586.826 119.261L575.309 99.3135H565.547L582.581 128.867V149.374H591.069V128.867L608.046 99.3135H598.283Z" fill="white"/>
<path d="M478.934 73.9836H456.827V31.7939H448.453V81.8353H478.934V73.9836Z" fill="white"/>
<path d="M462.7 186.412C462.373 187.513 461.813 188.517 461.002 189.404C460.212 190.272 459.11 190.89 457.723 191.236C457.242 191.372 456.7 191.468 456.14 191.507C455.544 191.565 455.023 191.583 454.561 191.583H442.617V174.685H454.561C455.023 174.685 455.544 174.723 456.14 174.762C456.7 174.781 457.242 174.858 457.723 175.013C459.11 175.36 460.212 175.978 461.002 176.845C461.813 177.733 462.373 178.736 462.7 179.874C463.047 180.992 463.22 182.073 463.22 183.133C463.22 184.196 463.047 185.294 462.7 186.412ZM466.075 169.997C464.187 168.512 461.813 167.566 458.919 167.122C458.263 167.007 457.549 166.93 456.796 166.91C456.024 166.872 455.408 166.833 454.908 166.833H434.246V216.894H442.617V199.397H454.908C455.37 199.397 455.986 199.377 456.76 199.34C457.549 199.282 458.263 199.224 458.919 199.126C461.795 198.684 464.167 197.719 466.037 196.234C467.927 194.767 469.356 192.895 470.281 190.638C471.208 188.382 471.671 185.874 471.671 183.133C471.671 180.376 471.208 177.887 470.281 175.629C469.376 173.353 467.967 171.483 466.075 169.997Z" fill="white"/>
<path d="M408.249 114.745C409.386 112.005 411.064 109.903 413.303 108.398C415.522 106.874 418.318 106.141 421.677 106.161C425.032 106.218 427.829 106.99 430.048 108.495C432.304 110 433.984 112.102 435.083 114.823C436.221 117.504 436.799 120.687 436.799 124.334C436.799 127.999 436.221 131.201 435.083 133.94C433.984 136.661 432.304 138.782 430.048 140.287C427.829 141.792 425.032 142.544 421.677 142.525C418.318 142.466 415.502 141.695 413.265 140.19C411.046 138.686 409.366 136.583 408.249 133.902C407.147 131.181 406.589 127.999 406.589 124.334C406.589 120.687 407.147 117.485 408.249 114.745ZM408.808 147.136C412.378 149.315 416.678 150.415 421.677 150.415C426.673 150.415 430.974 149.315 434.523 147.136C438.133 144.936 440.872 141.888 442.761 137.972C444.689 134.056 445.656 129.503 445.656 124.334C445.656 119.182 444.689 114.63 442.761 110.713C440.872 106.797 438.133 103.749 434.523 101.57C430.974 99.3697 426.673 98.2705 421.677 98.2705C416.678 98.2705 412.378 99.3697 408.808 101.57C405.239 103.749 402.499 106.797 400.571 110.713C398.681 114.63 397.734 119.182 397.734 124.334C397.734 129.503 398.681 134.056 400.571 137.972C402.499 141.888 405.239 144.936 408.808 147.136Z" fill="white"/>
<path d="M270.566 74.1956C268.983 74.7544 267.305 75.0245 265.529 75.0245C262.521 75.0245 259.858 74.2144 257.523 72.5941C255.229 70.9735 253.722 68.6775 252.97 65.7266L244.289 67.0383C244.793 70.2978 245.987 73.1341 247.879 75.5262C249.769 77.8795 252.181 79.6927 255.093 80.9661C258.044 82.259 261.345 82.895 265.009 82.895C267.574 82.895 270.024 82.5676 272.378 81.9117C274.731 81.2559 276.834 80.2915 278.667 78.9986C280.501 77.7064 281.947 76.0663 283.009 74.1372C284.088 72.1507 284.649 69.8736 284.649 67.2885C284.649 64.7808 284.183 62.7173 283.24 61.0958C282.353 59.4755 281.195 58.1636 279.766 57.1606C278.358 56.1772 276.891 55.4057 275.37 54.8458C273.825 54.287 272.454 53.8427 271.222 53.5151L262.25 51.0262C261.133 50.7176 259.993 50.3507 258.895 49.9075C257.794 49.4444 256.887 48.827 256.134 48.0554C255.402 47.2837 255.035 46.261 255.035 45.0461C255.035 43.7344 255.46 42.6155 256.309 41.6312C257.196 40.6666 258.333 39.9138 259.762 39.4122C261.191 38.8722 262.752 38.622 264.411 38.6407C266.129 38.6993 267.748 39.0464 269.253 39.6825C270.777 40.3383 272.049 41.284 273.112 42.5375C274.172 43.7729 274.886 45.2579 275.254 47.0138L284.261 45.4508C283.509 42.3839 282.237 39.7409 280.443 37.5605C278.629 35.3811 276.371 33.7409 273.69 32.6034C271.009 31.4449 267.941 30.8475 264.526 30.8287C261.133 30.809 258.044 31.3302 255.267 32.4292C252.508 33.5097 250.309 35.1496 248.669 37.3676C247.05 39.5291 246.239 42.2298 246.239 45.4508C246.239 47.65 246.585 49.5017 247.319 51.0262C248.052 52.4922 248.996 53.7269 250.136 54.7112C251.292 55.6559 252.508 56.4088 253.78 56.9676C255.073 57.4892 256.288 57.9134 257.39 58.241L270.313 62.0604C271.24 62.3502 272.049 62.6785 272.743 63.0832C273.478 63.4503 274.057 63.8745 274.499 64.3376C274.962 64.8006 275.312 65.321 275.544 65.9195C275.775 66.4982 275.89 67.1344 275.89 67.8287C275.89 69.3919 275.388 70.7036 274.384 71.7639C273.421 72.8256 272.147 73.6357 270.566 74.1956Z" fill="white"/>
<path d="M489.426 149.374H521.759V141.503H497.818V127.363H517.591V119.511H497.818V107.165H521.759V99.3135H489.426V149.374Z" fill="white"/>
<path d="M301.429 99.3135H293.055V149.374H301.429V99.3135Z" fill="white"/>
<path d="M465.01 141.233L451.794 99.3135H443.172L458.95 149.374H471.221L487.001 99.3135H478.379L465.01 141.233Z" fill="white"/>
<path d="M418.841 198.085C418.841 199.937 418.514 201.596 417.898 203.081C417.28 204.566 416.411 205.84 415.332 206.882C414.23 207.885 412.978 208.675 411.569 209.235C410.181 209.775 408.714 210.046 407.152 210.046C405.648 210.046 404.199 209.775 402.774 209.235C401.365 208.695 400.109 207.923 399.03 206.902C397.932 205.86 397.063 204.606 396.427 203.121C395.791 201.636 395.482 199.955 395.482 198.085V166.833L386.992 166.91V198.297C386.992 202.252 387.841 205.704 389.54 208.639C391.256 211.589 393.61 213.865 396.638 215.486C399.666 217.107 403.179 217.936 407.152 217.936C411.144 217.936 414.639 217.107 417.647 215.486C420.695 213.865 423.047 211.589 424.745 208.639C426.464 205.704 427.311 202.252 427.311 198.297V166.833H418.841V198.085Z" fill="white"/>
<path d="M372.286 201.461C371.184 204.182 369.506 206.305 367.251 207.808C365.032 209.313 362.233 210.066 358.877 210.047C355.521 209.989 352.723 209.217 350.464 207.712C348.249 206.207 346.569 204.104 345.449 201.423C344.351 198.704 343.792 195.521 343.792 191.855C343.792 188.209 344.351 185.005 345.449 182.266C346.589 179.528 348.286 177.425 350.504 175.92C352.723 174.396 355.521 173.663 358.877 173.682C362.233 173.74 365.032 174.512 367.251 176.017C369.506 177.521 371.184 179.624 372.286 182.344C373.422 185.025 374.001 188.209 374.001 191.855C374.001 195.521 373.422 198.722 372.286 201.461ZM371.744 169.091C368.176 166.892 363.874 165.792 358.877 165.792C353.861 165.792 349.579 166.892 346.011 169.091C342.441 171.271 339.702 174.318 337.772 178.235C335.881 182.151 334.938 186.704 334.938 191.855C334.938 197.026 335.881 201.577 337.772 205.494C339.702 209.411 342.441 212.459 346.011 214.657C349.579 216.836 353.861 217.937 358.877 217.937C363.874 217.937 368.176 216.836 371.744 214.657C375.332 212.459 378.071 209.411 379.963 205.494C381.892 201.577 382.855 197.026 382.855 191.855C382.855 186.704 381.892 182.151 379.963 178.235C378.071 174.318 375.332 171.271 371.744 169.091Z" fill="white"/>
<path d="M290.269 190.639H272.558V197.217H281.375C280.97 200.092 280.161 202.484 278.945 204.413C277.749 206.305 276.186 207.732 274.294 208.675C272.385 209.604 270.186 210.066 267.658 210.047C264.283 209.989 261.486 209.217 259.248 207.712C257.011 206.207 255.351 204.104 254.232 201.423C253.132 198.704 252.574 195.521 252.574 191.855C252.574 188.209 253.132 185.005 254.232 182.266C255.371 179.528 257.049 177.425 259.288 175.92C261.506 174.396 264.283 173.682 267.658 173.721C270.997 173.721 273.736 174.608 275.897 176.403C278.038 178.158 279.599 180.531 280.546 183.482L289.091 182.131C287.819 176.962 285.369 172.949 281.76 170.113C278.173 167.239 273.293 165.792 267.138 165.792C262.681 165.792 258.69 166.834 255.139 168.917C251.591 170.982 248.81 173.971 246.765 177.849C244.722 181.726 243.699 186.395 243.699 191.855C243.699 196.041 244.315 199.745 245.513 202.986C246.727 206.207 248.386 208.928 250.509 211.147C252.67 213.384 255.157 215.062 257.994 216.22C260.849 217.358 263.898 217.937 267.138 217.937C271.98 217.937 276.128 216.894 279.599 214.793C283.093 212.708 285.754 209.835 287.606 206.187C289.478 202.503 290.423 198.297 290.423 193.571C290.423 193.417 290.403 192.993 290.385 192.279C290.365 191.566 290.327 191.025 290.269 190.639Z" fill="white"/>
<path d="M276.98 131.858C276.286 134.231 275.208 136.256 273.721 137.935C272.234 139.594 270.304 140.654 267.952 141.099C267.123 141.253 266.16 141.369 265.058 141.407C263.999 141.446 263.128 141.484 262.416 141.484H254.989V107.204H262.416C263.128 107.204 263.999 107.223 265.058 107.281C266.16 107.3 267.123 107.396 267.952 107.589C270.266 108.033 272.176 109.055 273.643 110.676C275.15 112.296 276.266 114.302 276.98 116.695C277.715 119.087 278.062 121.633 278.062 124.335C278.062 126.958 277.715 129.466 276.98 131.858ZM278.543 103.846C275.824 101.513 272.465 100.105 268.512 99.6022C267.354 99.4676 266.14 99.3707 264.884 99.352C263.67 99.3323 262.839 99.3135 262.416 99.3135H246.461V149.374H262.416C262.839 149.374 263.67 149.355 264.924 149.336C266.178 149.298 267.374 149.22 268.512 149.085C272.465 148.583 275.824 147.175 278.543 144.879C281.302 142.565 283.385 139.613 284.814 136.063C286.221 132.495 286.937 128.578 286.937 124.335C286.937 120.11 286.221 116.193 284.814 112.625C283.385 109.055 281.302 106.123 278.543 103.846Z" fill="white"/>
<path d="M295.468 56.8141C295.468 53.1676 296.027 49.9654 297.129 47.2262C298.265 44.4868 299.944 42.3845 302.162 40.879C304.401 39.3556 307.178 38.6226 310.556 38.6414C313.911 38.6999 316.688 39.4714 318.927 40.976C321.165 42.4806 322.844 44.5837 323.962 47.3032C325.1 49.9851 325.661 53.1676 325.661 56.8141C325.661 60.4792 325.1 63.6825 323.962 66.4217C322.844 69.1412 321.165 71.263 318.927 72.7676C316.688 74.2732 313.911 75.0251 310.556 75.0063C307.178 74.948 304.381 74.1763 302.144 72.6717C299.906 71.1671 298.245 69.0639 297.129 66.3829C296.027 63.6627 295.468 60.4792 295.468 56.8141ZM310.556 82.8956C315.552 82.8956 319.832 81.7967 323.402 79.6164C326.99 77.4172 329.751 74.3693 331.639 70.4529C333.569 66.5373 334.535 61.9849 334.535 56.8141C334.535 51.663 333.569 47.1106 331.639 43.195C329.751 39.2784 326.99 36.2307 323.402 34.0503C319.832 31.8512 315.552 30.752 310.556 30.752C305.537 30.752 301.257 31.8512 297.687 34.0503C294.119 36.2307 291.378 39.2784 289.45 43.195C287.54 47.1106 286.594 51.663 286.594 56.8141C286.594 61.9849 287.54 66.5373 289.45 70.4529C291.378 74.3693 294.119 77.4172 297.687 79.6164C301.257 81.7967 305.537 82.8956 310.556 82.8956Z" fill="white"/>
<path d="M555.768 118.894C555.44 119.994 554.881 120.997 554.072 121.864C553.279 122.752 552.2 123.369 550.811 123.717C550.328 123.852 549.788 123.948 549.21 123.987C548.63 124.045 548.11 124.064 547.647 124.064H535.687V107.165H547.647C548.11 107.165 548.63 107.204 549.21 107.242C549.788 107.261 550.328 107.338 550.811 107.493C552.2 107.84 553.279 108.457 554.072 109.326C554.881 110.213 555.44 111.216 555.768 112.354C556.117 113.473 556.291 114.554 556.291 115.614C556.291 116.676 556.117 117.775 555.768 118.894ZM561.653 126.148C563.718 123.215 564.739 119.704 564.739 115.614C564.739 112.855 564.276 110.367 563.351 108.11C562.442 105.834 561.055 103.963 559.145 102.477C557.273 100.991 554.881 100.046 551.989 99.6022C551.333 99.4864 550.637 99.4092 549.866 99.3904C549.114 99.352 548.476 99.3135 547.994 99.3135H527.312V149.374H535.687V131.877H547.569L556.059 149.374H565.55L556.291 130.392C558.529 129.446 560.321 128.019 561.653 126.148Z" fill="white"/>
<path d="M323.081 186.412C322.752 187.513 322.192 188.517 321.383 189.404C320.592 190.272 319.491 190.89 318.104 191.236C317.621 191.372 317.079 191.468 316.501 191.507C315.923 191.565 315.403 191.583 314.938 191.583H302.978V174.685H314.938C315.403 174.685 315.923 174.723 316.501 174.762C317.079 174.781 317.621 174.858 318.104 175.013C319.491 175.36 320.592 175.978 321.383 176.845C322.192 177.733 322.752 178.736 323.081 179.874C323.428 180.992 323.602 182.073 323.602 183.133C323.602 184.196 323.428 185.294 323.081 186.412ZM328.944 193.668C331.009 190.736 332.052 187.224 332.052 183.133C332.052 180.376 331.587 177.887 330.662 175.629C329.755 173.353 328.346 171.483 326.436 169.997C324.565 168.512 322.192 167.566 319.28 167.122C318.644 167.007 317.93 166.93 317.157 166.91C316.405 166.872 315.769 166.833 315.287 166.833H294.605V216.894H302.978V199.397H314.881L323.35 216.894H332.841L323.602 197.912C325.838 196.967 327.614 195.538 328.944 193.668Z" fill="white"/>
<path d="M422.244 39.9146L429.669 63.181H414.912L422.244 39.9146ZM412.444 70.9931H432.177L435.632 81.8353H444.235L428.453 31.7939H416.184L400.426 81.8353H409.028L412.444 70.9931Z" fill="white"/>
</svg>
