<svg class="" width="126" height="40" viewBox="0 0 126 40" fill="none" xmlns="http://www.w3.org/2000/svg">
<path d="M125.49 7.88041L117.042 40.0008H110.615L112.717 32.0977H106.844L100.54 7.90098H107.419L112.882 31.5216L119.042 7.90098V7.88041H125.49ZM18.0709 11.3165V6.72818L4.59987 8.78573C8.39887 7.98329 10.5756 4.93811 10.5756 1.89294V0H3.75793V8.90918L0 9.50587V14.0942L3.75793 13.5181V15.6579L0.0205351 16.2341V20.6166L3.75793 20.0405V25.3078C3.98382 29.8962 7.00248 32.6327 11.9514 32.6327C13.7175 32.6327 15.4835 32.2623 17.1058 31.5628L17.1468 31.5422V25.8016L17.0647 25.8428C16.0995 26.316 15.0317 26.5629 13.9639 26.5629C11.664 26.5629 10.206 26.1926 10.206 24.3202V19.0323L18.0915 17.8184V13.4358L10.206 14.6497V12.5099L18.0709 11.3165ZM38.3596 8.95033L44.8077 7.96271V32.1389H38.3596V24.4437C38.1132 29.567 34.9303 32.6121 29.7349 32.6121C26.7573 32.6121 24.2931 31.4599 22.6297 29.2789C20.9664 27.0979 20.0834 23.9087 20.0834 20.0199C20.0834 16.1312 20.9664 12.942 22.6297 10.761C24.2931 8.57997 26.7573 7.42775 29.7349 7.42775C34.9303 7.42775 38.1132 10.4523 38.3596 15.5551V8.95033ZM38.7087 20.0199C38.7087 17.8184 38.1543 15.946 37.107 14.6086C36.0392 13.2506 34.499 12.5305 32.6714 12.5305C28.8929 12.5305 26.6341 15.3287 26.6341 20.0199C26.6341 24.7111 28.8929 27.4683 32.6714 27.4683C36.3472 27.4683 38.7087 24.5465 38.7087 20.0199ZM73.2899 20.0199C73.2899 27.9003 69.6757 32.6121 63.5973 32.6121C58.4019 32.6121 55.219 29.5875 54.9726 24.4437V32.1389H48.5245V1.91352L54.9726 0.925896V15.5551C55.219 10.4523 58.4019 7.42775 63.5973 7.42775C69.6757 7.42775 73.2899 12.1395 73.2899 20.0199ZM66.7187 20.0199C66.7187 15.3287 64.4598 12.5305 60.6813 12.5305C58.8537 12.5305 57.3136 13.2506 56.2457 14.6086C55.1984 15.9254 54.644 17.7978 54.644 20.0199C54.644 24.5465 57.0055 27.4683 60.6813 27.4683C64.4598 27.4683 66.7187 24.6906 66.7187 20.0199ZM100.519 20.0199C100.519 27.9003 96.9053 32.6121 90.8269 32.6121C85.6315 32.6121 82.4486 29.5875 82.2021 24.4437V32.1389H75.7747V1.91352L82.2227 0.925896V15.5551C82.4691 10.4523 85.652 7.42775 90.8474 7.42775C96.9053 7.42775 100.54 12.1395 100.519 20.0199ZM93.9482 20.0199C93.9482 15.3287 91.6894 12.5305 87.9109 12.5305C86.0833 12.5305 84.5432 13.2506 83.4753 14.6086C82.428 15.9254 81.8736 17.7978 81.8736 20.0199C81.8736 24.5465 84.2351 27.4683 87.9109 27.4683C91.6894 27.4683 93.9482 24.6906 93.9482 20.0199Z" fill="#fff"></path>
</svg>